<svg version="1.1" id="Layer_1" xmlns="http://www.w3.org/2000/svg" xmlns:xlink="http://www.w3.org/1999/xlink" x="0px" y="0px"
	 width="100%" viewBox="0 0 700 356" enable-background="new 0 0 700 356" xml:space="preserve">
<path fill="#000000" opacity="1.000000" stroke="none" 
	d="
M701.000000,356.000000 
	C700.833618,356.333313 700.684631,356.943817 700.498108,356.955536 
	C699.170837,357.038910 697.835815,357.000000 696.503296,357.000000 
	C465.307495,357.000000 234.111710,357.000000 2.468253,356.531433 
	C2.020687,341.065765 2.020775,326.068665 2.379174,310.824524 
	C2.778016,298.741364 2.818546,286.905273 2.911009,274.598724 
	C2.982999,256.308472 3.020380,238.488617 2.985475,220.668915 
	C2.983059,219.435806 2.442342,218.203735 2.076977,216.509674 
	C1.995353,214.387177 1.970300,212.726059 1.984780,211.065292 
	C2.269628,178.395126 2.559064,145.725021 2.922598,112.588058 
	C2.933044,88.400558 2.868458,64.679916 2.847244,40.564472 
	C2.861981,39.112404 2.833347,38.055138 2.854922,36.749992 
	C2.884542,36.334766 2.863955,36.167423 2.859404,35.579796 
	C2.586298,33.225109 2.065570,31.292887 2.047254,29.355913 
	C1.957880,19.904638 2.002671,10.452095 2.000000,1.000000 
	C233.694702,1.000000 465.389404,1.000000 697.583679,1.401459 
	C697.880432,4.139410 697.677673,6.475902 697.474854,8.812394 
	C697.767761,8.868912 698.060669,8.925429 698.353516,8.981948 
	C698.740845,8.195242 699.128113,7.408535 699.079468,7.507372 
	C699.079468,20.355627 699.086060,33.869202 699.078003,47.382771 
	C699.060669,76.506454 699.011536,105.630150 699.019897,134.753830 
	C699.031433,174.859879 699.084106,214.965927 699.081970,255.532562 
	C699.028076,266.803986 698.971313,277.615082 699.039062,288.425415 
	C699.048889,290.000824 699.653015,291.572540 699.975525,293.605438 
	C699.960449,312.998016 699.924744,331.931244 699.989563,350.864105 
	C699.995422,352.577209 700.647827,354.288086 701.000000,356.000000 
M404.734497,152.994247 
	C404.816467,152.657379 404.898438,152.320511 405.412201,151.559418 
	C405.746857,150.851227 406.081512,150.143051 406.817535,149.075684 
	C406.903412,148.731354 406.989319,148.387024 407.005493,148.033844 
	C407.005493,148.033844 407.049286,148.088821 407.573334,147.717056 
	C407.992737,146.808212 408.412170,145.899368 409.132568,144.359329 
	C410.754974,141.580154 412.377411,138.800980 414.431366,135.497665 
	C423.308075,120.372826 432.184753,105.247978 441.550476,89.909317 
	C441.664673,89.595863 441.778870,89.282402 441.971069,88.928253 
	C441.971069,88.928253 441.928192,88.851402 442.297577,88.640465 
	C442.528870,88.444351 442.647278,88.194695 442.815765,87.908195 
	C442.815765,87.908195 442.891724,87.762932 443.841400,87.811646 
	C474.601685,87.779793 505.362030,87.772514 536.122131,87.677620 
	C539.158936,87.668259 541.339050,88.185913 542.991028,91.220085 
	C547.165649,98.887543 551.744324,106.335449 556.177917,113.861397 
	C561.164673,122.326309 566.169861,130.780350 571.289001,139.995544 
	C573.976990,144.341064 576.664978,148.686584 579.485779,153.570999 
	C579.744080,154.021606 580.002380,154.472214 580.350586,155.596695 
	C581.343628,157.117584 582.336609,158.638474 583.293823,160.526840 
	C583.430969,160.755829 583.632629,160.881027 584.161865,161.578674 
	C585.300842,163.762482 586.159363,166.162216 587.638855,168.083923 
	C590.475708,171.768661 590.258667,174.837234 587.771790,178.845413 
	C581.523132,188.916611 575.853210,199.347168 569.961426,209.639450 
	C561.109619,225.102707 552.256165,240.565140 543.430237,256.043213 
	C542.112061,258.355042 540.499634,259.490662 537.568665,259.484344 
	C508.762909,259.422394 479.955994,259.449402 451.151367,259.686157 
	C446.173737,259.727081 442.230591,258.837799 439.875305,253.522491 
	C439.693909,253.227875 439.434784,253.041031 439.008820,252.367920 
	C438.686310,251.898560 438.363800,251.429199 437.998688,250.997253 
	C437.998688,250.997253 438.048553,250.971619 437.976410,250.249710 
	C436.319977,247.494553 434.663544,244.739410 432.996948,241.999756 
	C432.996948,241.999756 433.014465,241.997940 432.961456,241.437180 
	C432.620667,241.009232 432.279877,240.581299 431.989349,240.060379 
	C431.989349,240.060379 431.895630,240.011581 431.886749,239.487274 
	C431.604034,239.299393 431.321350,239.111496 431.012848,238.991379 
	C431.012848,238.991379 431.072205,238.949738 431.004486,238.289749 
	C430.357880,237.467819 429.711243,236.645905 429.003387,235.415924 
	C429.003387,235.415924 428.870789,235.025177 428.936157,234.485886 
	C428.670105,234.260635 428.404083,234.035385 428.128876,233.893372 
	C428.128876,233.893372 428.212616,233.892868 428.113373,233.290817 
	C427.766937,232.831894 427.420502,232.372971 427.024017,231.978409 
	C427.024017,231.978409 427.102051,231.954788 427.018097,231.232071 
	C422.073212,222.764450 417.271545,214.208603 412.130432,205.861877 
	C408.977081,200.742355 407.324432,200.648102 404.180908,205.904236 
	C396.528412,218.699753 389.287720,231.741562 381.247131,245.010803 
	C378.911560,249.136246 376.437866,253.190948 374.278198,257.406494 
	C372.002686,261.848236 370.027130,266.443634 367.268066,271.276001 
	C367.233795,273.025513 366.529388,275.149963 367.266754,276.467712 
	C376.803040,293.510040 386.528931,310.446472 396.249237,327.385406 
	C397.888214,330.241638 400.041962,331.724945 403.797302,331.702026 
	C433.901550,331.518097 464.007477,331.614594 494.112915,331.621521 
	C521.905334,331.627899 549.697998,331.691162 577.489624,331.543793 
	C580.469971,331.528015 583.443726,330.273499 586.507568,329.578369 
	C586.507568,329.578369 586.536621,329.494873 587.103760,329.124084 
	C588.762390,326.119080 590.420959,323.114044 592.679016,319.690765 
	C597.646851,310.526855 602.423523,301.252808 607.625610,292.223846 
	C616.259155,277.238922 625.216370,262.440918 633.943359,247.509293 
	C642.252014,233.293381 650.447998,219.011490 658.679443,204.750504 
	C664.089600,195.377365 669.489197,185.998047 674.862549,176.603775 
	C676.578369,173.604080 677.017639,170.867020 675.012756,167.436447 
	C664.360229,149.208817 654.043579,130.785324 643.540527,112.469826 
	C634.822205,97.266571 626.013367,82.115173 617.232544,66.947784 
	C609.888733,54.262501 602.527588,41.587315 595.077148,28.259432 
	C594.363892,27.208258 593.650574,26.157082 592.958862,25.034634 
	C592.958862,25.034634 592.888489,25.058956 592.706360,24.465570 
	C592.156616,23.935694 591.606873,23.405819 591.058289,22.951347 
	C591.058289,22.951347 591.133484,22.945755 591.158386,22.340992 
	C589.494568,19.811382 587.830688,17.281771 586.134644,14.827940 
	C586.134644,14.827940 586.216858,14.823839 585.628967,14.169473 
	C566.135498,14.110729 546.642029,14.014698 527.148560,14.001029 
	C486.985931,13.972871 446.822876,13.915886 406.661499,14.138230 
	C403.756836,14.154310 399.473663,15.500768 398.187378,17.643154 
	C388.436554,33.884377 379.273895,50.478725 369.409668,67.404228 
	C365.106598,74.718910 360.746429,82.000900 356.529877,89.365105 
	C354.944183,92.134537 353.691650,95.094757 351.989349,98.509697 
	C351.647186,99.008430 351.304993,99.507164 350.307587,100.203552 
	C345.035583,109.478622 339.763580,118.753700 334.079620,128.607010 
	C331.839386,132.406937 329.570038,136.190063 327.364868,140.010239 
	C322.558350,148.336884 317.784546,156.682388 312.386841,165.288559 
	C311.632660,166.870728 310.878448,168.452896 309.551697,170.402557 
	C308.375946,172.532928 307.200165,174.663315 305.576355,177.243866 
	C305.102173,178.183624 304.628021,179.123383 303.573547,180.307236 
	C303.390564,180.896469 303.207581,181.485718 302.457520,182.457016 
	C295.909241,193.880814 289.307404,205.274338 282.827118,216.736572 
	C275.824036,229.123535 268.934479,241.574707 262.000000,254.000000 
	C262.000000,254.000000 261.997467,253.995285 261.354065,254.273911 
	C258.697998,259.815094 253.955826,260.117889 248.527283,260.074310 
	C222.804382,259.867920 197.078766,260.027008 171.354507,259.941956 
	C166.572754,259.926147 161.792740,259.387543 156.876648,258.377319 
	C156.177063,257.295990 155.383972,256.263306 154.792633,255.125687 
	C149.941711,245.793442 145.427521,236.271820 140.238861,227.132584 
	C130.597488,210.150284 120.505920,193.423828 110.811020,176.471222 
	C109.944427,174.955856 109.937569,172.256104 110.686340,170.642288 
	C112.759491,166.174072 115.409950,161.969788 117.892212,157.696014 
	C129.632324,137.482758 141.638901,117.418266 153.003555,96.996384 
	C156.674805,90.399269 160.290222,87.067589 168.676590,87.285629 
	C196.619583,88.012138 224.593384,87.625069 252.554565,87.492325 
	C256.280243,87.474632 258.687042,88.457382 260.530975,91.847313 
	C264.436707,99.027710 268.711761,106.007233 273.081482,113.744514 
	C275.061646,117.133522 277.041809,120.522530 279.023102,123.981316 
	C279.023102,123.981316 279.092377,123.972794 279.223114,124.438042 
	C279.410187,124.733376 279.678040,124.894379 280.003876,124.981499 
	C280.003876,124.981499 280.068481,124.982155 280.086029,125.637329 
	C280.736633,126.734634 281.387268,127.831940 281.997253,128.974380 
	C281.997253,128.974380 282.056427,128.988022 282.055023,129.542267 
	C282.353607,129.740387 282.652161,129.938507 283.108063,130.607285 
	C283.108063,130.607285 283.438324,130.977722 283.531494,131.351959 
	C283.642487,131.596375 283.817352,131.779999 284.004059,131.942352 
	C284.004059,131.942352 284.067352,131.958420 284.093353,132.671066 
	C285.409149,135.079910 286.724945,137.488739 288.205688,140.571793 
	C289.677765,141.955338 291.149811,143.338867 292.621887,144.722412 
	C293.456482,143.497238 294.291046,142.272049 295.580597,140.963028 
	C295.580597,140.963028 295.996124,140.759628 296.454590,140.802505 
	C296.808807,140.635941 296.897247,140.378204 297.025360,139.534607 
	C297.046082,139.341934 297.066833,139.149246 297.611023,138.612869 
	C298.723755,136.404968 299.836487,134.197067 301.001495,131.543182 
	C301.001495,131.543182 301.037109,131.095535 301.777954,130.826828 
	C301.872955,129.594788 301.967926,128.362732 302.783417,127.024368 
	C305.916138,122.409012 309.048859,117.793655 312.662201,112.956886 
	C312.748291,112.629036 312.834351,112.301186 313.349426,111.442657 
	C314.564575,108.961662 315.779755,106.480667 317.000214,104.000000 
	C317.000214,104.000000 316.998596,103.993172 317.595581,103.675621 
	C319.044434,101.109146 320.493286,98.542671 321.999298,95.999367 
	C321.999298,95.999367 321.980438,95.940689 322.455505,95.845924 
	C322.814728,95.660072 322.907623,95.384445 322.936310,94.556290 
	C322.967010,94.390793 322.997711,94.225288 323.678650,93.762535 
	C326.630493,88.722595 329.919189,83.841507 332.400269,78.579613 
	C333.758972,75.698044 335.255829,71.432205 334.091827,69.072327 
	C329.995483,60.767342 324.773987,53.017334 319.997253,44.998589 
	C319.997253,44.998589 319.940277,45.020702 319.804047,44.367546 
	C318.857422,42.922226 317.910797,41.476906 316.884064,39.333485 
	C315.348877,36.808399 313.813690,34.283314 312.142517,31.113705 
	C311.478729,30.028341 310.814941,28.942978 309.996918,27.256172 
	C309.325989,26.513288 308.655029,25.770405 307.984344,24.986691 
	C307.984344,24.986691 307.953217,25.013338 307.850006,24.413366 
	C307.553375,23.945946 307.256775,23.478525 306.878479,22.293335 
	C305.972504,20.755459 304.730713,19.320063 304.224243,17.660286 
	C302.767029,12.884978 299.754456,11.858735 294.915894,11.874777 
	C237.029343,12.066678 179.141769,12.052320 121.254997,11.891820 
	C116.469864,11.878552 113.755135,13.253719 113.000000,18.000000 
	C113.000000,18.000000 112.996460,17.994387 112.406151,18.331785 
	C111.208786,20.563253 110.011429,22.794724 108.728844,25.131516 
	C108.728844,25.131516 108.824409,25.227551 108.267937,25.649817 
	C108.116203,26.079910 107.964470,26.510002 107.400192,27.184641 
	C107.204582,27.445349 107.075790,27.735695 106.447304,28.265099 
	C106.277695,28.834352 106.108086,29.403606 105.998077,29.993601 
	C105.998077,29.993601 105.959686,29.943497 105.494499,30.128208 
	C105.402565,30.417938 105.310638,30.707668 105.029541,31.442034 
	C105.029541,31.442034 104.976334,31.922295 104.366119,32.254715 
	C101.859047,36.820271 99.351967,41.385826 96.640976,46.044262 
	C96.640976,46.044262 96.706009,46.258694 96.168350,46.666702 
	C95.773369,47.440216 95.378380,48.213730 95.000305,48.999847 
	C95.000305,48.999847 94.985283,48.984001 94.418900,49.341568 
	C93.959793,50.562912 93.500687,51.784256 92.991837,52.997349 
	C92.991837,52.997349 93.009254,53.044662 92.451248,53.271492 
	C92.083527,54.181717 91.715805,55.091942 90.886208,56.370533 
	C90.567009,56.856068 90.247810,57.341602 89.346046,58.106441 
	C88.941650,59.082104 88.537254,60.057766 87.890648,61.320194 
	C87.890648,61.320194 87.889633,61.695560 87.378304,61.950031 
	C87.276848,62.302864 87.175392,62.655697 86.832733,63.269180 
	C86.832733,63.269180 86.839584,63.624249 86.226013,63.985813 
	C83.051651,69.616470 79.877289,75.247124 76.230293,81.216675 
	C76.066574,81.773430 75.902855,82.330193 75.181190,83.231743 
	C74.439468,84.811195 73.697746,86.390648 73.000267,87.999336 
	C73.000267,87.999336 72.968468,87.956802 72.345421,88.262596 
	C69.535568,93.490585 66.725708,98.718575 63.986736,103.991386 
	C63.986736,103.991386 63.940804,103.921227 63.318462,104.199089 
	C61.738884,107.036842 60.159309,109.874596 58.663773,112.726143 
	C58.663773,112.726143 58.652668,112.641708 58.057606,112.952881 
	C57.639523,113.965240 57.221443,114.977592 56.708035,116.091431 
	C56.708035,116.091431 56.796646,116.198814 56.261917,116.624268 
	C56.121460,117.047173 55.981007,117.470085 55.378410,118.268227 
	C55.174656,118.820839 54.970905,119.373451 54.269188,120.306564 
	C53.513569,121.527702 52.757950,122.748833 51.972416,123.976570 
	C51.972416,123.976570 51.970028,124.007111 51.497013,124.142357 
	C51.137882,124.351051 51.062855,124.634903 51.089054,125.480659 
	C51.060978,125.651695 51.032906,125.822731 50.390148,126.321609 
	C48.565586,129.870529 46.741020,133.419464 44.722359,137.119278 
	C44.722359,137.119278 44.857437,137.324692 44.326164,137.723862 
	C44.216438,138.145416 44.106712,138.566986 43.542934,139.270157 
	C43.351871,139.565521 43.160812,139.860870 42.570835,140.247681 
	C42.285355,140.417938 42.207279,140.656296 41.998276,141.549316 
	C41.662163,142.356140 41.326050,143.162949 40.512260,144.144211 
	C40.350746,144.428970 40.189232,144.713730 39.993801,144.991821 
	C39.993801,144.991821 40.003605,145.024963 39.377056,145.334808 
	C37.261890,149.561981 35.146725,153.789154 32.991882,158.015656 
	C32.991882,158.015656 33.023453,158.040909 32.519409,158.399658 
	C32.033318,159.274841 31.547226,160.150040 30.998817,161.021622 
	C30.998817,161.021622 31.035618,161.072037 30.455727,161.452972 
	C29.977600,162.500381 29.700758,163.716110 28.988579,164.567825 
	C24.470062,169.971588 25.107887,175.179260 28.617088,180.961075 
	C35.673603,192.587540 42.267967,204.493652 49.127338,216.240982 
	C52.007927,221.174255 55.077209,225.997330 58.062000,230.945374 
	C58.062000,230.945374 58.136665,230.939346 58.238201,231.644089 
	C60.176842,234.725449 62.115486,237.806808 64.014023,240.942642 
	C64.014023,240.942642 64.078499,240.963074 64.118904,241.677383 
	C67.071945,246.470108 70.024994,251.262833 73.041656,256.779633 
	C74.555817,259.700531 75.953217,262.689270 77.603714,265.531006 
	C86.197899,280.328064 94.873825,295.077667 103.484306,309.865295 
	C106.998764,315.901031 110.420052,321.991028 114.051025,328.757263 
	C116.869637,330.066406 119.648148,332.379730 122.514458,332.494202 
	C130.721542,332.821930 138.963547,332.109161 147.193069,332.070038 
	C182.141907,331.903717 217.091278,331.742920 252.040298,331.772217 
	C265.989136,331.783936 279.937378,332.428314 293.886353,332.448700 
	C296.370361,332.452332 298.856781,330.805023 301.729095,329.728821 
	C301.729095,329.728821 301.899323,329.332184 302.368469,329.252808 
	C302.517242,328.847473 302.666046,328.442108 303.102417,327.381195 
	C304.395538,324.918030 305.688690,322.454834 307.409210,319.774231 
	C307.704041,319.570190 307.827271,319.290558 308.357300,318.550049 
	C309.305878,316.693298 310.254456,314.836548 311.393951,312.883423 
	C311.393951,312.883423 311.317688,312.683594 311.823578,312.172058 
	C313.867767,308.441254 315.911957,304.710449 318.485931,300.703339 
	C318.738983,300.169830 318.992065,299.636322 319.762726,298.952606 
	C319.868011,298.807007 319.973267,298.661438 320.412567,298.493744 
	C320.320709,298.200165 320.228851,297.906616 320.544556,297.385895 
	C320.811737,297.196716 320.980743,296.942291 321.381531,296.554993 
	C321.413116,296.446167 321.499908,296.313446 321.465271,296.233246 
	C321.382141,296.040863 321.242035,295.873169 321.250305,295.580505 
	C321.250305,295.580505 321.146637,295.445587 321.748474,295.103119 
	C322.498627,293.729095 323.248810,292.355072 324.385559,290.794464 
	C324.673492,290.616791 324.765930,290.366852 324.929626,289.544312 
	C324.958130,289.357452 324.986603,289.170624 325.434601,288.828857 
	C325.759857,288.651886 325.843994,288.395721 325.917755,287.527802 
	C325.955597,287.338043 325.993408,287.148315 326.440521,286.831665 
	C326.764160,286.662018 326.834320,286.419098 326.919250,285.520721 
	C327.274963,285.004028 327.630676,284.487305 328.609009,283.681702 
	C333.757385,274.464203 338.905762,265.246674 344.681854,255.747223 
	C346.757751,252.099640 348.833649,248.452057 351.434845,244.388138 
	C353.668976,240.312119 355.903107,236.236099 358.674225,231.771561 
	C361.405060,226.514114 364.135895,221.256668 367.130829,215.429138 
	C367.751740,214.874954 368.372650,214.320786 369.574432,213.646194 
	C369.942902,212.763702 370.311340,211.881210 370.983521,210.354630 
	C372.092621,208.274536 373.201752,206.194427 374.850983,203.717255 
	C377.992798,198.176208 381.134644,192.635162 384.821808,186.691376 
	C387.068542,182.618042 389.315277,178.544693 391.562561,174.449524 
	C391.562561,174.449524 391.572723,174.430237 391.873596,174.195618 
	C391.873596,174.195618 391.952362,173.822296 392.479980,173.416183 
	C396.015442,166.971817 399.550903,160.527451 403.578857,153.961227 
	C403.815948,153.736374 404.053040,153.511520 404.734497,152.994247 
z"/>
<path fill="#252F33" opacity="1.000000" stroke="none" 
	d="
M699.119202,255.071991 
	C699.084106,214.965927 699.031433,174.859879 699.019897,134.753830 
	C699.011536,105.630150 699.060669,76.506454 699.078003,47.382771 
	C699.086060,33.869202 699.079468,20.355627 699.079468,7.507372 
	C699.128113,7.408535 698.740845,8.195242 698.353516,8.981948 
	C698.060669,8.925429 697.767761,8.868912 697.474854,8.812394 
	C697.677673,6.475902 697.880432,4.139410 698.041626,1.401459 
	C698.998291,1.000000 699.996582,1.000000 700.997437,1.000000 
	C701.000000,85.354225 701.000000,169.708450 700.686157,254.540512 
	C699.954590,255.036224 699.536926,255.054108 699.119202,255.071991 
z"/>
<path fill="#4A5550" opacity="1.000000" stroke="none" 
	d="
M2.803873,40.959274 
	C2.868458,64.679916 2.933044,88.400558 2.614981,112.570518 
	C1.821555,113.013222 1.410777,113.006615 1.000000,113.000000 
	C1.000000,89.312439 1.000000,65.624878 1.300748,41.465485 
	C2.002288,40.982193 2.403081,40.970734 2.803873,40.959274 
z"/>
<path fill="#4D5554" opacity="1.000000" stroke="none" 
	d="
M2.151957,216.971191 
	C2.442342,218.203735 2.983059,219.435806 2.985475,220.668915 
	C3.020380,238.488617 2.982999,256.308472 2.600589,274.595215 
	C1.825492,275.041443 1.412746,275.020721 1.000000,275.000000 
	C1.000000,255.979111 1.000000,236.958206 1.287957,217.460144 
	C1.767928,216.979065 1.959942,216.975128 2.151957,216.971191 
z"/>
<path fill="#637172" opacity="1.000000" stroke="none" 
	d="
M2.076978,216.509674 
	C1.959942,216.975128 1.767928,216.979065 1.287957,216.991486 
	C1.000000,182.645767 1.000000,148.291550 1.000000,113.468658 
	C1.410777,113.006615 1.821555,113.013222 2.539949,113.037369 
	C2.559064,145.725021 2.269628,178.395126 1.984780,211.065292 
	C1.970300,212.726059 1.995353,214.387177 2.076978,216.509674 
z"/>
<path fill="#252F33" opacity="1.000000" stroke="none" 
	d="
M701.000000,355.531342 
	C700.647827,354.288086 699.995422,352.577209 699.989563,350.864105 
	C699.924744,331.931244 699.960449,312.998016 699.991943,293.132080 
	C700.343384,288.132843 700.671692,284.066437 701.000000,280.000000 
	C701.000000,305.020905 701.000000,330.041779 701.000000,355.531342 
z"/>
<path fill="#808080" opacity="1.000000" stroke="none" 
	d="
M1.000000,275.375000 
	C1.412746,275.020721 1.825492,275.041443 2.548657,275.065674 
	C2.818546,286.905273 2.778016,298.741364 2.375780,310.420166 
	C1.676050,308.508575 1.338025,306.754303 1.000000,305.000000 
	C1.000000,296.979095 1.000000,288.958191 1.203781,280.318359 
	C1.271707,279.132935 1.135851,278.566467 0.999998,278.000000 
	C1.000000,277.250000 1.000000,276.500000 1.000000,275.375000 
z"/>
<path fill="#284848" opacity="1.000000" stroke="none" 
	d="
M701.000000,279.531372 
	C700.671692,284.066437 700.343384,288.132843 699.998657,292.672607 
	C699.653015,291.572540 699.048889,290.000824 699.039062,288.425415 
	C698.971313,277.615082 699.028076,266.803986 699.081970,255.532562 
	C699.536926,255.054108 699.954590,255.036224 700.686157,255.009171 
	C701.000000,263.020905 701.000000,271.041809 701.000000,279.531372 
z"/>
<path fill="#5D6A69" opacity="1.000000" stroke="none" 
	d="
M1.000000,305.468658 
	C1.338025,306.754303 1.676050,308.508575 2.017468,310.667236 
	C2.020775,326.068665 2.020687,341.065765 2.010298,356.531433 
	C1.666663,356.011108 1.046553,355.023285 1.042815,354.033173 
	C0.982288,338.001373 1.000000,321.969330 1.000000,305.468658 
z"/>
<path fill="#5C6465" opacity="1.000000" stroke="none" 
	d="
M2.847244,40.564476 
	C2.403081,40.970734 2.002288,40.982193 1.300748,40.996826 
	C1.000000,27.666666 1.000000,14.333333 1.500000,1.000000 
	C2.002671,10.452095 1.957880,19.904638 2.047254,29.355913 
	C2.065570,31.292887 2.586298,33.225109 2.761060,35.686993 
	C2.518255,36.508533 2.570933,36.769669 2.804714,36.997871 
	C2.833347,38.055138 2.861981,39.112404 2.847244,40.564476 
z"/>
<path fill="#5D6A69" opacity="1.000000" stroke="none" 
	d="
M0.999998,278.333313 
	C1.135851,278.566467 1.271707,279.132935 1.203781,279.849701 
	C1.000000,279.555542 1.000000,279.111115 0.999998,278.333313 
z"/>
<path fill="#76B8EF" opacity="1.000000" stroke="none" 
	d="
M54.767151,119.926064 
	C54.970905,119.373451 55.174656,118.820839 55.840054,117.845322 
	C56.466679,117.014557 56.631660,116.606682 56.796646,116.198814 
	C56.796646,116.198814 56.708035,116.091431 57.106339,115.935135 
	C57.887318,114.733131 58.269993,113.687424 58.652672,112.641708 
	C58.652668,112.641708 58.663773,112.726143 58.971909,112.643890 
	C62.725830,110.702179 64.178513,107.767609 63.940804,103.921227 
	C63.940804,103.921227 63.986736,103.991386 64.304604,103.914978 
	C69.485428,99.638206 71.982094,94.194344 72.968468,87.956802 
	C72.968468,87.956802 73.000267,87.999336 73.313843,87.937439 
	C76.020020,86.927528 79.319328,86.363319 75.739136,82.886948 
	C75.902855,82.330193 76.066574,81.773430 76.811577,80.992386 
	C81.321556,75.483162 86.951294,71.135551 86.839584,63.624249 
	C86.839584,63.624249 86.832733,63.269180 87.133766,62.949352 
	C87.586411,62.318203 87.738022,62.006882 87.889633,61.695560 
	C87.889633,61.695560 87.890648,61.320194 88.324921,61.051605 
	C89.149002,59.797726 89.538811,58.812431 89.928612,57.827137 
	C90.247810,57.341602 90.567009,56.856068 91.400772,56.068718 
	C92.279976,54.859489 92.644615,53.952076 93.009254,53.044662 
	C93.009254,53.044662 92.991837,52.997349 93.344116,52.884697 
	C94.126030,51.509365 94.555656,50.246685 94.985283,48.984001 
	C94.985283,48.984001 95.000305,48.999847 95.327904,48.865250 
	C96.005669,47.906666 96.355835,47.082680 96.706009,46.258690 
	C96.706009,46.258694 96.640976,46.044262 97.114555,45.949883 
	C101.937790,42.211655 104.328827,37.529236 104.976334,31.922295 
	C104.976334,31.922295 105.029541,31.442034 105.281815,31.069555 
	C105.728889,30.475782 105.870758,30.224588 105.959686,29.943497 
	C105.959686,29.943497 105.998077,29.993601 106.185379,29.798826 
	C106.586395,29.087929 106.800110,28.571804 107.013817,28.055679 
	C107.075790,27.735695 107.204582,27.445349 107.844238,26.823364 
	C108.466995,26.050573 108.645699,25.639061 108.824402,25.227551 
	C108.824409,25.227551 108.728844,25.131516 109.085426,24.916512 
	C110.626831,22.465799 111.811646,20.230095 112.996460,17.994389 
	C112.996460,17.994387 113.000000,18.000000 113.340973,17.930902 
	C116.057266,16.315281 118.353699,13.617710 120.823418,13.448453 
	C127.035263,13.022734 133.325073,13.954916 139.584091,13.962483 
	C190.702148,14.024292 241.820312,13.995463 292.938446,14.004626 
	C299.130493,14.005736 299.935852,14.653975 299.975555,20.220362 
	C300.054626,31.315308 300.014862,42.411129 300.016022,53.506592 
	C300.018127,73.820572 300.001434,94.134560 300.029755,114.448502 
	C300.033142,116.895889 301.150238,119.779190 300.203613,121.696274 
	C298.420563,125.307251 299.419006,128.090790 301.037109,131.095535 
	C301.037109,131.095535 301.001495,131.543182 300.651093,131.875244 
	C299.229645,134.457062 298.158600,136.706802 297.087555,138.956558 
	C297.066833,139.149246 297.046082,139.341934 296.712952,139.859161 
	C296.209595,140.336288 296.074799,140.528259 295.996124,140.759628 
	C295.996124,140.759628 295.580597,140.963028 294.983795,140.978516 
	C292.378204,140.295853 290.369415,139.597702 288.264465,138.537842 
	C286.801300,136.103561 285.434326,134.030991 284.067352,131.958420 
	C284.067352,131.958420 284.004059,131.942352 284.028564,131.714294 
	C283.948822,131.194962 283.743927,131.025467 283.438324,130.977722 
	C283.438324,130.977722 283.108063,130.607285 282.943451,130.137283 
	C282.589966,129.385651 282.349152,129.159225 282.056427,128.988022 
	C282.056427,128.988022 281.997253,128.974380 282.054993,128.598007 
	C281.431305,127.141808 280.749878,126.061981 280.068481,124.982162 
	C280.068481,124.982155 280.003876,124.981499 279.952087,124.717468 
	C279.711609,124.157784 279.442291,123.997566 279.092377,123.972794 
	C279.092377,123.972794 279.023102,123.981316 279.023163,123.583542 
	C278.463287,118.894440 277.699524,114.727776 272.835358,113.069138 
	C268.711761,106.007233 264.436707,99.027710 260.530975,91.847313 
	C258.687042,88.457382 256.280243,87.474632 252.554565,87.492325 
	C224.593384,87.625069 196.619583,88.012138 168.676590,87.285629 
	C160.290222,87.067589 156.674805,90.399269 153.003555,96.996384 
	C141.638901,117.418266 129.632324,137.482758 117.892212,157.696014 
	C115.409950,161.969788 112.759491,166.174072 110.686340,170.642288 
	C109.937569,172.256104 109.944427,174.955856 110.811020,176.471222 
	C120.505920,193.423828 130.597488,210.150284 140.238861,227.132584 
	C145.427521,236.271820 149.941711,245.793442 154.792633,255.125687 
	C155.383972,256.263306 156.177063,257.295990 157.024902,259.052094 
	C158.454681,260.211182 159.729950,261.091644 161.018845,261.112091 
	C167.009506,261.207123 173.003952,261.063934 179.153534,261.364685 
	C180.490448,262.146240 181.669235,262.932281 182.851517,262.937592 
	C200.547592,263.017395 218.244431,263.037842 235.939911,262.909332 
	C237.298645,262.899475 238.648529,261.667786 240.470917,261.001160 
	C245.568466,260.996460 250.197632,261.003174 254.826736,260.990662 
	C261.416351,260.972839 261.763062,260.628448 261.997467,253.995285 
	C261.997467,253.995285 262.000000,254.000000 262.342163,253.933350 
	C264.429565,251.163895 266.241241,248.501312 267.907928,245.750885 
	C273.444336,236.614349 278.842041,227.392639 284.461975,218.308151 
	C288.498962,211.782486 292.806061,205.423935 297.327118,198.993744 
	C298.107330,198.998032 298.553040,198.999390 298.998535,199.375519 
	C298.998016,200.499786 298.997742,201.249283 298.673584,202.114166 
	C297.930176,204.308594 297.062073,206.418396 297.202057,208.459045 
	C297.386139,211.141968 298.930023,213.773911 298.913849,216.421829 
	C298.712097,249.428970 298.257355,282.434784 298.134521,315.441895 
	C298.123901,318.292114 300.007751,321.149323 300.945007,324.338257 
	C300.244965,326.124115 299.611481,327.575073 298.510742,329.032715 
	C241.449371,329.051727 184.855209,329.088593 128.261139,329.031891 
	C123.468353,329.027100 118.676186,328.396301 113.883736,328.056335 
	C110.420052,321.991028 106.998764,315.901031 103.484306,309.865295 
	C94.873825,295.077667 86.197899,280.328064 77.603714,265.531006 
	C75.953217,262.689270 74.555817,259.700531 73.013268,256.031128 
	C70.016083,250.509445 67.047287,245.736267 64.078491,240.963074 
	C64.078499,240.963074 64.014023,240.942642 64.041702,240.584137 
	C64.689125,235.470856 61.506046,233.145599 58.136665,230.939346 
	C58.136665,230.939346 58.062000,230.945374 58.052979,230.513550 
	C55.961903,224.918839 54.311180,219.525497 51.703098,214.643631 
	C47.055073,205.943329 41.828266,197.552216 36.843590,189.031754 
	C36.177803,187.893707 35.534134,186.742050 34.842945,185.619659 
	C32.691254,182.125610 30.229414,178.779816 28.497330,175.090393 
	C27.765663,173.531891 28.319284,171.209900 28.710169,169.322220 
	C29.288088,166.531311 30.241875,163.818253 31.035618,161.072037 
	C31.035618,161.072037 30.998817,161.021622 31.340963,160.921768 
	C32.129890,159.894913 32.576672,158.967911 33.023453,158.040909 
	C33.023453,158.040909 32.991882,158.015656 33.354637,157.943039 
	C37.917767,154.618713 40.042637,150.351318 40.003605,145.024963 
	C40.003605,145.024963 39.993801,144.991821 40.206566,144.859436 
	C40.663742,144.515472 40.853947,144.263046 40.989937,143.969772 
	C41.326050,143.162949 41.662163,142.356140 42.308121,141.151169 
	C42.790321,140.586548 42.907581,140.387619 42.969753,140.156235 
	C43.160812,139.860870 43.351871,139.565521 43.972366,138.886749 
	C44.553677,138.110458 44.705555,137.717575 44.857437,137.324692 
	C44.857437,137.324692 44.722359,137.119278 45.123260,136.888092 
	C47.351051,133.102539 49.177944,129.548141 51.004837,125.993759 
	C51.032906,125.822731 51.060978,125.651695 51.331520,125.098755 
	C51.759441,124.510094 51.891457,124.273514 51.970028,124.007111 
	C51.970028,124.007111 51.972416,123.976570 52.330574,123.963455 
	C53.381542,122.608910 54.074348,121.267487 54.767151,119.926064 
z"/>
<path fill="#9CCD5B" opacity="1.000000" stroke="none" 
	d="
M580.260681,154.922821 
	C580.002380,154.472214 579.744080,154.021606 579.674561,153.199768 
	C581.670349,146.755524 576.249817,144.014420 573.766357,139.723297 
	C573.477722,139.400299 573.286743,139.245728 573.026123,139.072983 
	C572.978943,139.026993 572.869995,138.952988 572.799805,138.612366 
	C563.919739,122.547409 555.203186,106.769417 546.217773,91.146072 
	C544.513611,88.183067 542.842346,84.956009 538.082458,84.989120 
	C508.117523,85.197586 478.150299,85.063339 448.184845,85.230217 
	C446.415802,85.240074 444.655884,86.881027 442.891724,87.762939 
	C442.891724,87.762932 442.815765,87.908195 442.536133,87.990021 
	C442.014984,88.276054 441.905548,88.535912 441.928192,88.851402 
	C441.928192,88.851402 441.971069,88.928253 441.739685,89.098892 
	C441.262177,89.503189 441.113220,89.787727 441.061462,90.123138 
	C432.184753,105.247978 423.308075,120.372826 413.873108,135.825195 
	C411.540924,139.096985 409.766998,142.041229 407.855957,145.282913 
	C407.495636,146.416504 407.272461,147.252655 407.049286,148.088821 
	C407.049286,148.088821 407.005493,148.033844 406.770020,148.022171 
	C406.354095,148.007828 406.173645,148.005173 405.667175,147.883698 
	C405.640167,141.967972 401.090210,135.562851 406.481201,131.277573 
	C405.561798,127.910576 404.095367,125.046646 404.112976,122.191864 
	C404.215332,105.588135 404.813049,88.987862 404.960815,72.383904 
	C405.128052,53.590546 404.997437,34.794540 405.406342,15.918577 
	C408.444275,15.561297 411.071838,15.048748 413.700195,15.044718 
	C448.271332,14.991698 482.842621,15.033200 517.413818,15.003064 
	C540.348145,14.983072 563.282532,14.886262 586.216858,14.823839 
	C586.216858,14.823839 586.134644,14.827940 586.166870,15.160860 
	C587.843933,17.977768 589.488708,20.461754 591.133484,22.945747 
	C591.133484,22.945755 591.058289,22.951347 591.110229,23.218937 
	C591.737671,24.010666 592.313049,24.534805 592.888489,25.058952 
	C592.888489,25.058956 592.958862,25.034634 592.962891,25.433289 
	C593.702576,26.857185 594.438354,27.882425 595.174072,28.907661 
	C602.527588,41.587315 609.888733,54.262501 617.232544,66.947784 
	C626.013367,82.115173 634.822205,97.266571 643.540527,112.469826 
	C654.043579,130.785324 664.360229,149.208817 675.012756,167.436447 
	C677.017639,170.867020 676.578369,173.604080 674.862549,176.603775 
	C669.489197,185.998047 664.089600,195.377365 658.679443,204.750504 
	C650.447998,219.011490 642.252014,233.293381 633.943359,247.509293 
	C625.216370,262.440918 616.259155,277.238922 607.625610,292.223846 
	C602.423523,301.252808 597.646851,310.526855 592.045410,319.957581 
	C589.786743,323.314575 588.161682,326.404724 586.536621,329.494873 
	C586.536621,329.494873 586.507568,329.578369 585.979736,329.449585 
	C583.294495,329.216278 581.137146,329.021057 578.979736,329.020355 
	C522.870117,329.001801 466.760468,328.993011 410.650818,329.022675 
	C406.435272,329.024902 404.110107,329.290405 402.824677,323.102753 
	C400.950592,314.081757 402.050873,305.272156 401.674347,296.472687 
	C400.701935,273.748657 401.159576,250.962128 401.152588,228.200531 
	C401.152008,226.326248 401.909119,224.438263 402.411255,222.582932 
	C402.663849,221.649521 403.694092,220.236206 403.423035,219.954895 
	C399.300323,215.675751 403.921234,212.804459 405.139954,209.516037 
	C405.628632,208.197433 407.313324,206.491608 408.470215,206.478989 
	C409.685883,206.465744 411.273041,208.044571 412.083618,209.318512 
	C414.751617,213.511581 416.975006,217.990219 419.689880,222.149887 
	C421.923828,225.572723 424.614044,228.697769 427.102051,231.954788 
	C427.102051,231.954788 427.024017,231.978409 427.089233,232.243439 
	C427.507202,232.969925 427.859894,233.431396 428.212616,233.892868 
	C428.212616,233.892868 428.128876,233.893372 428.206848,234.080505 
	C428.435638,234.554596 428.630951,234.807098 428.870789,235.025177 
	C428.870789,235.025177 429.003387,235.415924 429.047546,235.971008 
	C429.751892,237.333984 430.412048,238.141861 431.072205,238.949738 
	C431.072205,238.949738 431.012848,238.991379 431.124084,239.171478 
	C431.404816,239.622223 431.624939,239.842224 431.895630,240.011581 
	C431.895630,240.011581 431.989349,240.060379 432.007080,240.380096 
	C432.354675,241.132538 432.684570,241.565231 433.014465,241.997940 
	C433.014465,241.997940 432.996948,241.999756 433.009399,242.363861 
	C434.697418,245.475830 436.372986,248.223724 438.048553,250.971619 
	C438.048553,250.971619 437.998688,250.997253 438.053223,251.272095 
	C438.437805,252.018616 438.767883,252.490280 439.097961,252.961945 
	C439.434784,253.041031 439.693909,253.227875 439.934174,254.157745 
	C440.580505,259.959869 444.512665,262.349792 451.303345,261.983978 
	C459.361847,261.549805 467.429443,261.116425 475.496429,261.042603 
	C491.805511,260.893311 508.116882,260.968292 524.427246,260.996094 
	C527.747131,261.001740 531.191467,260.682281 534.359009,261.435486 
	C540.001160,262.777161 543.812439,260.749146 546.443604,256.065582 
	C551.696106,246.715851 556.606812,237.170547 561.997009,227.902756 
	C566.217102,220.646744 571.145874,213.804214 575.402832,206.567993 
	C581.440857,196.304092 587.218323,185.883850 592.899597,175.417725 
	C593.484375,174.340393 593.063354,172.283936 592.413330,171.047592 
	C590.111938,166.670258 587.686768,162.331451 584.924927,158.236832 
	C583.926636,156.756821 581.846924,156.006256 580.260681,154.922821 
z"/>
<path fill="#8EB960" opacity="1.000000" stroke="none" 
	d="
M427.060059,231.593430 
	C424.614044,228.697769 421.923828,225.572723 419.689880,222.149887 
	C416.975006,217.990219 414.751617,213.511581 412.083618,209.318512 
	C411.273041,208.044571 409.685883,206.465744 408.470215,206.478989 
	C407.313324,206.491608 405.628632,208.197433 405.139954,209.516037 
	C403.921234,212.804459 399.300323,215.675751 403.423035,219.954895 
	C403.694092,220.236206 402.663849,221.649521 402.411255,222.582932 
	C401.909119,224.438263 401.152008,226.326248 401.152588,228.200531 
	C401.159576,250.962128 400.701935,273.748657 401.674347,296.472687 
	C402.050873,305.272156 400.950592,314.081757 402.824677,323.102753 
	C404.110107,329.290405 406.435272,329.024902 410.650818,329.022675 
	C466.760468,328.993011 522.870117,329.001801 578.979736,329.020355 
	C581.137146,329.021057 583.294495,329.216278 585.936218,329.457214 
	C583.443726,330.273499 580.469971,331.528015 577.489624,331.543793 
	C549.697998,331.691162 521.905334,331.627899 494.112915,331.621521 
	C464.007477,331.614594 433.901550,331.518097 403.797302,331.702026 
	C400.041962,331.724945 397.888214,330.241638 396.249237,327.385406 
	C386.528931,310.446472 376.803040,293.510040 367.266754,276.467712 
	C366.529388,275.149963 367.233795,273.025513 367.697083,271.137329 
	C368.126068,270.998657 368.314728,271.084320 368.298096,271.423950 
	C372.859161,279.836426 377.436859,287.909241 382.079407,296.324951 
	C386.548889,303.701996 390.953491,310.736115 395.358093,317.770233 
	C395.960419,317.496796 396.562744,317.223358 397.165070,316.949921 
	C396.565338,314.209442 395.390411,311.452820 395.466766,308.731323 
	C395.775787,297.715424 396.295044,286.698029 397.070709,275.704742 
	C397.861084,264.502991 394.511047,253.204910 397.945679,242.069534 
	C398.219971,241.180298 398.142456,239.965775 397.749969,239.126038 
	C396.239227,235.893646 395.827179,232.954956 398.244751,229.820496 
	C398.868042,229.012390 398.024902,227.073288 397.855438,225.653748 
	C393.346069,230.558578 390.261261,235.767105 386.807190,240.718033 
	C385.649261,242.377808 383.550110,243.380936 381.881165,244.684174 
	C389.287720,231.741562 396.528412,218.699753 404.180908,205.904236 
	C407.324432,200.648102 408.977081,200.742355 412.130432,205.861877 
	C417.271545,214.208603 422.073212,222.764450 427.060059,231.593430 
z"/>
<path fill="#92C67D" opacity="1.000000" stroke="none" 
	d="
M391.562012,174.471344 
	C389.315277,178.544693 387.068542,182.618042 384.190247,186.932007 
	C381.477997,189.043167 379.397278,190.913712 376.949554,193.114166 
	C376.561340,191.868851 376.201019,191.271362 376.218811,190.685349 
	C376.448273,183.114410 376.935669,175.545883 376.964081,167.975266 
	C377.061066,142.152161 376.972107,116.328377 377.037323,90.505074 
	C377.045685,87.199547 377.758575,83.895653 377.764618,80.590302 
	C377.772675,76.198410 379.234833,71.546562 375.861542,66.241096 
	C372.181793,71.366272 369.086395,75.677544 365.770203,80.244202 
	C364.025574,83.328041 362.501770,86.156494 360.698090,89.174774 
	C357.707886,92.232399 354.997589,95.100197 352.287262,97.968002 
	C353.691650,95.094757 354.944183,92.134537 356.529877,89.365105 
	C360.746429,82.000900 365.106598,74.718910 370.026489,67.167923 
	C372.458984,64.623184 374.274689,62.314739 376.263916,59.863110 
	C376.657684,59.512733 376.846405,59.279968 377.219421,58.774845 
	C378.625946,56.686901 379.816681,54.845741 381.273010,52.834526 
	C382.024170,51.771832 382.509766,50.879196 382.999451,49.744545 
	C383.003510,49.502533 383.015442,49.018597 383.364380,48.989548 
	C385.148834,48.436169 386.584412,47.911842 386.998383,47.760643 
	C386.998383,54.109638 386.998413,60.423164 386.998352,66.736687 
	C386.998138,91.667671 386.963684,116.598732 387.023376,141.529572 
	C387.037140,147.275772 387.226532,153.031738 387.636169,158.761688 
	C387.794281,160.973114 389.000702,163.092911 389.335144,165.313843 
	C389.590240,167.008041 389.470337,168.859360 389.043060,170.518692 
	C388.778564,171.545868 387.626617,172.344543 386.255859,173.983978 
	C388.762512,174.214218 390.162262,174.342789 391.562012,174.471344 
z"/>
<path fill="#81BCBA" opacity="1.000000" stroke="none" 
	d="
M334.491608,128.028778 
	C339.763580,118.753700 345.035583,109.478622 350.649170,100.360542 
	C351.006927,100.687759 351.023102,100.857994 351.086914,101.375824 
	C350.624969,104.151276 350.231110,106.610909 349.575226,108.998573 
	C348.833893,111.697441 347.857178,114.331665 346.634583,117.073822 
	C344.194611,121.622604 340.725708,125.958992 340.280273,130.586426 
	C339.137268,142.460602 339.127747,154.462555 339.044586,166.416077 
	C338.888214,188.881454 338.998871,211.348709 338.999542,233.815186 
	C338.999695,239.245895 339.336304,244.703522 338.899597,250.098694 
	C338.559906,254.294876 341.152161,255.094620 344.054138,256.029144 
	C338.905762,265.246674 333.757385,274.464203 328.317505,283.450623 
	C328.917603,280.078308 330.601135,276.924438 330.551300,273.798248 
	C330.405945,264.685242 329.094666,255.583023 329.099396,246.477020 
	C329.109283,227.353165 329.618103,208.228546 330.021698,189.106339 
	C330.231995,179.141953 330.333069,169.156128 331.133728,159.232452 
	C331.467407,155.096802 333.401276,151.119781 329.116058,147.958908 
	C328.934814,147.825211 329.025970,147.322220 329.012848,146.621979 
	C331.704712,140.176697 334.373962,134.100693 337.109253,127.978165 
	C337.175293,127.931648 337.173431,127.724579 337.173431,127.724579 
	C337.173431,127.724579 336.971924,127.952049 336.662201,127.968346 
	C335.732178,127.999352 335.111908,128.014069 334.491608,128.028778 
z"/>
<path fill="#7BB9D1" opacity="1.000000" stroke="none" 
	d="
M334.285614,128.317902 
	C335.111908,128.014069 335.732178,127.999352 336.678345,127.988144 
	C337.004242,127.991638 337.043243,128.024689 337.043243,128.024689 
	C334.373962,134.100693 331.704712,140.176697 328.689331,146.732697 
	C324.197845,153.798859 320.278564,160.264557 320.901886,168.721466 
	C321.712860,179.724564 321.984375,190.791931 321.931488,201.828964 
	C321.832916,222.398270 321.363647,242.966232 320.970093,263.533264 
	C320.900635,267.163757 320.425049,270.785339 320.185699,274.414276 
	C320.098694,275.733185 320.085144,277.065186 320.156189,278.384857 
	C320.462433,284.073059 320.812500,289.758881 321.146637,295.445587 
	C321.146637,295.445587 321.250305,295.580505 321.163757,295.869354 
	C321.077179,296.158203 321.051575,296.622650 321.051575,296.622650 
	C320.980743,296.942291 320.811737,297.196716 320.317810,297.725403 
	C320.091095,298.064911 320.078491,298.515869 320.078491,298.515869 
	C319.973267,298.661438 319.868011,298.807007 319.234467,299.050934 
	C318.456177,299.759399 318.206177,300.369507 317.956177,300.979645 
	C315.911957,304.710449 313.867767,308.441254 311.515076,312.017883 
	C311.720428,308.745239 312.234283,305.626831 312.748138,302.508392 
	C312.719330,300.610046 314.438690,298.548431 314.036591,297.059998 
	C311.506592,287.695282 312.613525,278.345917 312.810455,268.862579 
	C313.356537,242.562134 312.887817,216.242126 313.080902,189.931763 
	C313.127563,183.575317 314.357513,177.234802 314.668182,170.868652 
	C314.761780,168.950912 313.589661,166.971405 312.997375,165.020187 
	C317.784546,156.682388 322.558350,148.336884 327.364868,140.010239 
	C329.570038,136.190063 331.839386,132.406937 334.285614,128.317902 
z"/>
<path fill="#78B7DB" opacity="1.000000" stroke="none" 
	d="
M312.692108,165.154373 
	C313.589661,166.971405 314.761780,168.950912 314.668182,170.868652 
	C314.357513,177.234802 313.127563,183.575317 313.080902,189.931763 
	C312.887817,216.242126 313.356537,242.562134 312.810455,268.862579 
	C312.613525,278.345917 311.506592,287.695282 314.036591,297.059998 
	C314.438690,298.548431 312.719330,300.610046 312.748138,302.508392 
	C312.234283,305.626831 311.720428,308.745239 311.262115,312.273621 
	C311.317688,312.683594 311.393951,312.883423 310.992432,313.084961 
	C309.384369,314.864502 308.177856,316.442474 306.716064,317.742737 
	C305.976837,315.744080 304.669098,313.739044 305.148132,312.350250 
	C307.523254,305.463898 304.854523,298.742188 305.001312,291.962097 
	C305.335144,276.539093 305.935120,261.115997 305.928986,245.693115 
	C305.922607,229.658997 305.401154,213.622971 304.912140,197.593658 
	C304.844574,195.379272 303.669037,193.198669 302.974243,190.808380 
	C302.620300,190.738739 302.298584,190.863190 301.738281,191.199554 
	C300.663239,192.604462 299.826752,193.797424 298.710693,195.179199 
	C297.951691,196.575623 297.472168,197.783234 296.992676,198.990845 
	C292.806061,205.423935 288.498962,211.782486 284.461975,218.308151 
	C278.842041,227.392639 273.444336,236.614349 267.907928,245.750885 
	C266.241241,248.501312 264.429565,251.163895 262.339844,253.932281 
	C268.934479,241.574707 275.824036,229.123535 282.827118,216.736572 
	C289.307404,205.274338 295.909241,193.880814 302.910889,182.330399 
	C303.627441,181.490234 303.890656,180.776688 304.153839,180.063141 
	C304.628021,179.123383 305.102173,178.183624 306.093231,176.906586 
	C307.781494,174.391220 308.952881,172.213135 310.124237,170.035049 
	C310.878448,168.452896 311.632660,166.870728 312.692108,165.154373 
z"/>
<path fill="#89C2A5" opacity="1.000000" stroke="none" 
	d="
M346.982788,116.994003 
	C347.857178,114.331665 348.833893,111.697441 349.575226,108.998573 
	C350.231110,106.610909 350.624969,104.151276 351.413757,101.465477 
	C356.142975,103.256485 359.546600,105.688057 356.266541,111.343384 
	C355.674957,112.363411 355.959503,113.956970 356.018188,115.277809 
	C356.312317,121.897675 356.955414,128.516098 356.927704,135.132751 
	C356.890259,144.079178 356.165375,153.021606 356.073730,161.969208 
	C355.922241,176.760086 356.011108,191.553848 356.070068,206.346115 
	C356.082520,209.462601 356.690643,212.594070 356.516357,215.690033 
	C356.228394,220.805420 355.527100,225.897552 354.928284,231.036713 
	C354.856567,231.073944 354.841553,231.256729 354.841553,231.256729 
	C354.841553,231.256729 355.000000,231.000610 355.346527,231.019867 
	C356.507782,231.412766 357.322540,231.786423 358.137268,232.160095 
	C355.903107,236.236099 353.668976,240.312119 350.931244,244.449936 
	C349.319580,244.511734 348.211517,244.511734 347.245697,244.511734 
	C346.977997,243.822510 346.753540,243.517838 346.757599,243.216232 
	C347.160522,213.326447 347.188141,183.423584 348.198822,153.554031 
	C348.587219,142.075089 345.221252,130.692078 347.855713,119.232880 
	C348.004059,118.587593 347.293579,117.744850 346.982788,116.994003 
z"/>
<path fill="#95C772" opacity="1.000000" stroke="none" 
	d="
M391.562286,174.460434 
	C390.162262,174.342789 388.762512,174.214218 386.255859,173.983978 
	C387.626617,172.344543 388.778564,171.545868 389.043060,170.518692 
	C389.470337,168.859360 389.590240,167.008041 389.335144,165.313843 
	C389.000702,163.092911 387.794281,160.973114 387.636169,158.761688 
	C387.226532,153.031738 387.037140,147.275772 387.023376,141.529572 
	C386.963684,116.598732 386.998138,91.667671 386.998352,66.736687 
	C386.998413,60.423164 386.998383,54.109638 386.998383,47.760643 
	C386.584412,47.911842 385.148834,48.436169 383.455505,48.652054 
	C386.783234,41.896984 390.368744,35.450359 394.129211,29.336674 
	C394.855255,31.557806 395.889008,33.450359 395.871979,35.333416 
	C395.806915,42.529446 399.286255,49.864086 395.075897,56.952522 
	C394.563782,57.814682 394.985535,59.242115 395.003845,60.407104 
	C395.333191,81.352470 395.752289,102.296982 395.943207,123.243584 
	C395.994476,128.869797 395.330811,134.501144 395.039215,140.132401 
	C394.854309,143.702896 394.926361,147.295547 394.563995,150.845673 
	C394.146240,154.938629 395.846771,156.490723 399.685242,155.135529 
	C400.780487,154.748871 401.866516,154.336212 402.988037,153.973389 
	C403.019287,154.011292 403.086365,154.083084 403.086365,154.083084 
	C399.550903,160.527451 396.015442,166.971817 392.084595,173.588409 
	C391.420746,173.912308 391.381897,174.135513 391.572723,174.430237 
	C391.572723,174.430237 391.562561,174.449524 391.562286,174.460434 
z"/>
<path fill="#80BEC8" opacity="1.000000" stroke="none" 
	d="
M321.447571,295.274353 
	C320.812500,289.758881 320.462433,284.073059 320.156189,278.384857 
	C320.085144,277.065186 320.098694,275.733185 320.185699,274.414276 
	C320.425049,270.785339 320.900635,267.163757 320.970093,263.533264 
	C321.363647,242.966232 321.832916,222.398270 321.931488,201.828964 
	C321.984375,190.791931 321.712860,179.724564 320.901886,168.721466 
	C320.278564,160.264557 324.197845,153.798859 328.666718,147.101990 
	C329.025970,147.322220 328.934814,147.825211 329.116058,147.958908 
	C333.401276,151.119781 331.467407,155.096802 331.133728,159.232452 
	C330.333069,169.156128 330.231995,179.141953 330.021698,189.106339 
	C329.618103,208.228546 329.109283,227.353165 329.099396,246.477020 
	C329.094666,255.583023 330.405945,264.685242 330.551300,273.798248 
	C330.601135,276.924438 328.917603,280.078308 328.006195,283.595062 
	C327.630676,284.487305 327.274963,285.004028 326.650635,285.929565 
	C326.219391,286.519318 326.102417,286.726044 326.031189,286.958618 
	C325.993408,287.148315 325.955597,287.338043 325.658325,287.922760 
	C325.222443,288.511780 325.094482,288.733826 325.015045,288.983795 
	C324.986603,289.170624 324.958130,289.357452 324.650940,289.923950 
	C324.196045,290.500854 324.071625,290.726685 323.998993,290.981049 
	C323.248810,292.355072 322.498627,293.729095 321.447571,295.274353 
z"/>
<path fill="#90C68B" opacity="1.000000" stroke="none" 
	d="
M365.990997,79.988815 
	C369.086395,75.677544 372.181793,71.366272 375.861542,66.241096 
	C379.234833,71.546562 377.772675,76.198410 377.764618,80.590302 
	C377.758575,83.895653 377.045685,87.199547 377.037323,90.505074 
	C376.972107,116.328377 377.061066,142.152161 376.964081,167.975266 
	C376.935669,175.545883 376.448273,183.114410 376.218811,190.685349 
	C376.201019,191.271362 376.561340,191.868851 376.949554,193.114166 
	C379.397278,190.913712 381.477997,189.043167 383.917603,187.133362 
	C381.134644,192.635162 377.992798,198.176208 374.163818,203.882736 
	C372.300568,202.794418 370.192383,201.602753 370.103943,200.276443 
	C369.631622,193.191101 369.608551,186.072723 369.532410,178.964676 
	C369.327637,159.850754 369.120209,140.736511 369.045868,121.621880 
	C369.030457,117.662933 369.797638,113.703438 369.828857,109.741234 
	C369.875702,103.795921 369.849884,97.826485 369.358307,91.908554 
	C369.016907,87.798180 370.261810,83.054749 365.990997,79.988815 
z"/>
<path fill="#86C1B1" opacity="1.000000" stroke="none" 
	d="
M346.634583,117.073822 
	C347.293579,117.744850 348.004059,118.587593 347.855713,119.232880 
	C345.221252,130.692078 348.587219,142.075089 348.198822,153.554031 
	C347.188141,183.423584 347.160522,213.326447 346.757599,243.216232 
	C346.753540,243.517838 346.977997,243.822510 347.245697,244.511734 
	C348.211517,244.511734 349.319580,244.511734 350.668579,244.658112 
	C348.833649,248.452057 346.757751,252.099640 344.367981,255.888184 
	C341.152161,255.094620 338.559906,254.294876 338.899597,250.098694 
	C339.336304,244.703522 338.999695,239.245895 338.999542,233.815186 
	C338.998871,211.348709 338.888214,188.881454 339.044586,166.416077 
	C339.127747,154.462555 339.137268,142.460602 340.280273,130.586426 
	C340.725708,125.958992 344.194611,121.622604 346.634583,117.073822 
z"/>
<path fill="#7BB8E3" opacity="1.000000" stroke="none" 
	d="
M301.407532,130.961182 
	C299.419006,128.090790 298.420563,125.307251 300.203613,121.696274 
	C301.150238,119.779190 300.033142,116.895889 300.029755,114.448502 
	C300.001434,94.134560 300.018127,73.820572 300.016022,53.506592 
	C300.014862,42.411129 300.054626,31.315308 299.975555,20.220362 
	C299.935852,14.653975 299.130493,14.005736 292.938446,14.004626 
	C241.820312,13.995463 190.702148,14.024292 139.584091,13.962483 
	C133.325073,13.954916 127.035263,13.022734 120.823418,13.448453 
	C118.353699,13.617710 116.057266,16.315281 113.338379,17.929440 
	C113.755135,13.253719 116.469864,11.878552 121.254997,11.891820 
	C179.141769,12.052320 237.029343,12.066678 294.915894,11.874777 
	C299.754456,11.858735 302.767029,12.884978 304.224243,17.660286 
	C304.730713,19.320063 305.972504,20.755459 306.768036,22.849033 
	C307.089478,23.940931 307.521332,24.477135 307.953217,25.013336 
	C307.953217,25.013338 307.984344,24.986691 307.983795,25.377373 
	C307.991272,26.508484 307.999298,27.248913 307.791992,28.267281 
	C307.384766,32.313648 307.383392,36.104416 306.944855,39.843918 
	C306.544617,43.256771 305.141632,46.607029 305.096436,49.997086 
	C304.890717,65.421288 304.899445,80.850883 305.053619,96.276306 
	C305.136047,104.520134 305.669891,112.759453 305.759064,121.228508 
	C304.366394,123.347702 303.214661,125.239197 302.062897,127.130684 
	C301.967926,128.362732 301.872955,129.594788 301.407532,130.961182 
z"/>
<path fill="#94C672" opacity="1.000000" stroke="none" 
	d="
M381.564148,244.847504 
	C383.550110,243.380936 385.649261,242.377808 386.807190,240.718033 
	C390.261261,235.767105 393.346069,230.558578 397.855438,225.653748 
	C398.024902,227.073288 398.868042,229.012390 398.244751,229.820496 
	C395.827179,232.954956 396.239227,235.893646 397.749969,239.126038 
	C398.142456,239.965775 398.219971,241.180298 397.945679,242.069534 
	C394.511047,253.204910 397.861084,264.502991 397.070709,275.704742 
	C396.295044,286.698029 395.775787,297.715424 395.466766,308.731323 
	C395.390411,311.452820 396.565338,314.209442 397.165070,316.949921 
	C396.562744,317.223358 395.960419,317.496796 395.358093,317.770233 
	C390.953491,310.736115 386.548889,303.701996 382.445251,296.299805 
	C385.871826,295.242859 385.811462,293.134857 385.435333,290.552094 
	C384.988281,287.482269 384.123077,284.106079 384.928650,281.288574 
	C387.555298,272.101898 385.201721,263.017426 385.175232,253.901855 
	C385.172119,252.835678 384.651154,251.770996 384.011902,249.346405 
	C381.164856,252.928741 378.863708,255.581055 376.838715,258.429718 
	C373.892975,262.573700 371.146301,266.859161 368.314697,271.084320 
	C368.314728,271.084320 368.126068,270.998657 368.023285,270.985291 
	C370.027130,266.443634 372.002686,261.848236 374.278198,257.406494 
	C376.437866,253.190948 378.911560,249.136246 381.564148,244.847504 
z"/>
<path fill="#8EC593" opacity="1.000000" stroke="none" 
	d="
M365.770203,80.244202 
	C370.261810,83.054749 369.016907,87.798180 369.358307,91.908554 
	C369.849884,97.826485 369.875702,103.795921 369.828857,109.741234 
	C369.797638,113.703438 369.030457,117.662933 369.045868,121.621880 
	C369.120209,140.736511 369.327637,159.850754 369.532410,178.964676 
	C369.608551,186.072723 369.631622,193.191101 370.103943,200.276443 
	C370.192383,201.602753 372.300568,202.794418 373.893768,204.081268 
	C373.201752,206.194427 372.092621,208.274536 370.568420,210.691681 
	C369.766754,211.941376 369.380188,212.854004 368.993591,213.766602 
	C368.372650,214.320786 367.751740,214.874954 366.635284,215.734222 
	C361.873657,217.442657 361.974854,214.723679 361.978455,211.798218 
	C362.015198,181.839737 361.987793,151.881180 362.034332,121.922714 
	C362.037384,119.950386 362.599091,117.985313 362.727448,116.005623 
	C363.189026,108.887711 363.803467,101.766098 363.838470,94.643303 
	C363.847687,92.761917 361.982483,90.871315 360.977966,88.984940 
	C362.501770,86.156494 364.025574,83.328041 365.770203,80.244202 
z"/>
<path fill="#8CC39B" opacity="1.000000" stroke="none" 
	d="
M360.698120,89.174774 
	C361.982483,90.871315 363.847687,92.761917 363.838470,94.643303 
	C363.803467,101.766098 363.189026,108.887711 362.727448,116.005623 
	C362.599091,117.985313 362.037384,119.950386 362.034332,121.922714 
	C361.987793,151.881180 362.015198,181.839737 361.978455,211.798218 
	C361.974854,214.723679 361.873657,217.442657 366.503235,216.019272 
	C364.135895,221.256668 361.405060,226.514114 358.405762,231.965820 
	C357.322540,231.786423 356.507782,231.412766 355.346527,231.019562 
	C355.000000,231.000000 355.000000,230.999481 355.000000,230.999481 
	C355.527100,225.897552 356.228394,220.805420 356.516357,215.690033 
	C356.690643,212.594070 356.082520,209.462601 356.070068,206.346115 
	C356.011108,191.553848 355.922241,176.760086 356.073730,161.969208 
	C356.165375,153.021606 356.890259,144.079178 356.927704,135.132751 
	C356.955414,128.516098 356.312317,121.897675 356.018188,115.277809 
	C355.959503,113.956970 355.674957,112.363411 356.266541,111.343384 
	C359.546600,105.688057 356.142975,103.256485 351.366150,101.117889 
	C351.023102,100.857994 351.006927,100.687759 350.976776,100.261719 
	C351.304993,99.507164 351.647186,99.008430 352.138306,98.238846 
	C354.997589,95.100197 357.707886,92.232399 360.698120,89.174774 
z"/>
<path fill="#669CC2" opacity="1.000000" stroke="none" 
	d="
M113.967377,328.406799 
	C118.676186,328.396301 123.468353,329.027100 128.261139,329.031891 
	C184.855209,329.088593 241.449371,329.051727 298.695923,329.217468 
	C300.012909,329.570343 300.677490,329.745209 301.342072,329.920044 
	C298.856781,330.805023 296.370361,332.452332 293.886353,332.448700 
	C279.937378,332.428314 265.989136,331.783936 252.040298,331.772217 
	C217.091278,331.742920 182.141907,331.903717 147.193069,332.070038 
	C138.963547,332.109161 130.721542,332.821930 122.514458,332.494202 
	C119.648148,332.379730 116.869637,330.066406 113.967377,328.406799 
z"/>
<path fill="#8EB960" opacity="1.000000" stroke="none" 
	d="
M580.305664,155.259766 
	C581.846924,156.006256 583.926636,156.756821 584.924927,158.236832 
	C587.686768,162.331451 590.111938,166.670258 592.413330,171.047592 
	C593.063354,172.283936 593.484375,174.340393 592.899597,175.417725 
	C587.218323,185.883850 581.440857,196.304092 575.402832,206.567993 
	C571.145874,213.804214 566.217102,220.646744 561.997009,227.902756 
	C556.606812,237.170547 551.696106,246.715851 546.443604,256.065582 
	C543.812439,260.749146 540.001160,262.777161 534.359009,261.435486 
	C531.191467,260.682281 527.747131,261.001740 524.427246,260.996094 
	C508.116882,260.968292 491.805511,260.893311 475.496429,261.042603 
	C467.429443,261.116425 459.361847,261.549805 451.303345,261.983978 
	C444.512665,262.349792 440.580505,259.959869 440.008606,254.390854 
	C442.230591,258.837799 446.173737,259.727081 451.151367,259.686157 
	C479.955994,259.449402 508.762909,259.422394 537.568665,259.484344 
	C540.499634,259.490662 542.112061,258.355042 543.430237,256.043213 
	C552.256165,240.565140 561.109619,225.102707 569.961426,209.639450 
	C575.853210,199.347168 581.523132,188.916611 587.771790,178.845413 
	C590.258667,174.837234 590.475708,171.768661 587.638855,168.083923 
	C586.159363,166.162216 585.300842,163.762482 583.936951,161.117661 
	C583.591919,160.485199 583.464478,160.319443 583.329651,160.159378 
	C582.336609,158.638474 581.343628,157.117584 580.305664,155.259766 
z"/>
<path fill="#78BAE6" opacity="1.000000" stroke="none" 
	d="
M298.990234,194.990387 
	C299.826752,193.797424 300.663239,192.604462 301.995789,191.204163 
	C302.663391,190.998703 302.834900,191.000565 303.006409,191.002441 
	C303.669037,193.198669 304.844574,195.379272 304.912140,197.593658 
	C305.401154,213.622971 305.922607,229.658997 305.928986,245.693115 
	C305.935120,261.115997 305.335144,276.539093 305.001312,291.962097 
	C304.854523,298.742188 307.523254,305.463898 305.148132,312.350250 
	C304.669098,313.739044 305.976837,315.744080 306.821045,317.920288 
	C307.335510,318.610107 307.534698,318.796692 307.778870,318.935272 
	C307.827271,319.290558 307.704041,319.570190 306.878662,319.939331 
	C305.235992,320.738922 304.123901,321.373413 302.695618,321.776184 
	C301.969360,320.840210 301.202789,320.136078 301.202606,319.431763 
	C301.200134,308.788025 301.275940,298.144043 301.379150,287.500580 
	C301.480652,277.035736 301.700745,266.571655 301.748566,256.106720 
	C301.817505,241.007721 301.728241,225.907944 301.823273,210.809219 
	C301.844177,207.486725 302.761993,204.038513 298.997467,201.998795 
	C298.997742,201.249283 298.998016,200.499786 299.205811,199.128632 
	C299.272247,197.334793 299.131256,196.162598 298.990234,194.990387 
z"/>
<path fill="#7DBAD2" opacity="1.000000" stroke="none" 
	d="
M323.028412,94.059776 
	C322.997711,94.225288 322.967010,94.390793 322.675110,94.911049 
	C322.214417,95.455460 322.069916,95.680420 321.980438,95.940689 
	C321.980438,95.940689 321.999298,95.999367 321.644196,96.082169 
	C319.858917,98.774368 318.428772,101.383774 316.998596,103.993172 
	C316.998596,103.993172 317.000214,104.000000 316.668274,104.001236 
	C315.897308,104.009148 315.458252,104.015816 315.012482,103.601494 
	C314.338379,99.280823 313.163818,95.390007 313.095428,91.479858 
	C312.857452,77.868881 313.087982,64.250320 312.946838,50.636654 
	C312.907837,46.873154 314.125061,44.560722 318.179932,44.190849 
	C318.900452,44.602421 319.420349,44.811562 319.940277,45.020702 
	C319.940277,45.020702 319.997253,44.998589 320.001221,45.366730 
	C323.204773,54.644455 324.061676,63.687389 322.361938,73.087814 
	C321.770599,76.358002 321.493500,80.533569 323.044800,83.106857 
	C324.635040,85.744774 324.709930,87.229645 323.509796,89.666901 
	C322.898132,90.909019 323.160889,92.581703 323.028412,94.059776 
z"/>
<path fill="#799D50" opacity="1.000000" stroke="none" 
	d="
M443.366577,87.787292 
	C444.655884,86.881027 446.415802,85.240074 448.184845,85.230217 
	C478.150299,85.063339 508.117523,85.197586 538.082458,84.989120 
	C542.842346,84.956009 544.513611,88.183067 546.217773,91.146072 
	C555.203186,106.769417 563.919739,122.547409 572.373413,138.675323 
	C571.733826,139.132324 571.450378,139.185730 571.166992,139.239136 
	C566.169861,130.780350 561.164673,122.326309 556.177917,113.861397 
	C551.744324,106.335449 547.165649,98.887543 542.991028,91.220085 
	C541.339050,88.185913 539.158936,87.668259 536.122131,87.677620 
	C505.362030,87.772514 474.601685,87.779793 443.366577,87.787292 
z"/>
<path fill="#9DBD72" opacity="1.000000" stroke="none" 
	d="
M393.954285,29.003727 
	C390.368744,35.450359 386.783234,41.896984 383.106567,48.681103 
	C383.015442,49.018597 383.003510,49.502533 382.684357,49.848892 
	C381.912598,51.131695 381.459991,52.068134 381.007385,53.004578 
	C379.816681,54.845741 378.625946,56.686901 377.033569,58.906010 
	C376.397491,59.484287 376.216949,59.725071 376.090393,60.006302 
	C374.274689,62.314739 372.458984,64.623184 370.285583,66.947296 
	C379.273895,50.478725 388.436554,33.884377 398.187378,17.643154 
	C399.473663,15.500768 403.756836,14.154310 406.661499,14.138230 
	C446.822876,13.915886 486.985931,13.972871 527.148560,14.001029 
	C546.642029,14.014698 566.135498,14.110729 585.922913,14.496656 
	C563.282532,14.886262 540.348145,14.983072 517.413818,15.003064 
	C482.842621,15.033200 448.271332,14.991698 413.700195,15.044718 
	C411.071838,15.048748 408.444275,15.561297 405.030396,15.935692 
	C402.695465,16.807806 400.549316,17.182356 399.713013,18.432859 
	C397.491577,21.754618 395.835327,25.454342 393.954285,29.003727 
z"/>
<path fill="#7BB6C1" opacity="1.000000" stroke="none" 
	d="
M323.353516,93.911156 
	C323.160889,92.581703 322.898132,90.909019 323.509796,89.666901 
	C324.709930,87.229645 324.635040,85.744774 323.044800,83.106857 
	C321.493500,80.533569 321.770599,76.358002 322.361938,73.087814 
	C324.061676,63.687389 323.204773,54.644455 319.992279,45.395805 
	C324.773987,53.017334 329.995483,60.767342 334.091827,69.072327 
	C335.255829,71.432205 333.758972,75.698044 332.400269,78.579613 
	C329.919189,83.841507 326.630493,88.722595 323.353516,93.911156 
z"/>
<path fill="#7BB8E3" opacity="1.000000" stroke="none" 
	d="
M30.745672,161.262512 
	C30.241875,163.818253 29.288088,166.531311 28.710169,169.322220 
	C28.319284,171.209900 27.765663,173.531891 28.497330,175.090393 
	C30.229414,178.779816 32.691254,182.125610 34.842945,185.619659 
	C35.534134,186.742050 36.177803,187.893707 36.843590,189.031754 
	C41.828266,197.552216 47.055073,205.943329 51.703098,214.643631 
	C54.311180,219.525497 55.961903,224.918839 58.052338,230.476105 
	C55.077209,225.997330 52.007927,221.174255 49.127338,216.240982 
	C42.267967,204.493652 35.673603,192.587540 28.617088,180.961075 
	C25.107887,175.179260 24.470062,169.971588 28.988579,164.567825 
	C29.700758,163.716110 29.977600,162.500381 30.745672,161.262512 
z"/>
<path fill="#78B7DB" opacity="1.000000" stroke="none" 
	d="
M261.675781,254.134598 
	C261.763062,260.628448 261.416351,260.972839 254.826736,260.990662 
	C250.197632,261.003174 245.568466,260.996460 240.002014,260.997223 
	C219.042160,260.999420 199.019592,261.002716 178.997040,261.006042 
	C173.003952,261.063934 167.009506,261.207123 161.018845,261.112091 
	C159.729950,261.091644 158.454681,260.211182 157.092529,259.408569 
	C161.792740,259.387543 166.572754,259.926147 171.354507,259.941956 
	C197.078766,260.027008 222.804382,259.867920 248.527283,260.074310 
	C253.955826,260.117889 258.697998,259.815094 261.675781,254.134598 
z"/>
<path fill="#8EB960" opacity="1.000000" stroke="none" 
	d="
M571.228027,139.617340 
	C571.450378,139.185730 571.733826,139.132324 572.443604,139.015945 
	C572.869995,138.952988 572.978943,139.026993 573.146973,139.211334 
	C573.484253,139.577713 573.674805,139.733795 573.886597,139.863907 
	C576.249817,144.014420 581.670349,146.755524 579.608154,152.930328 
	C576.664978,148.686584 573.976990,144.341064 571.228027,139.617340 
z"/>
<path fill="#7BB8E3" opacity="1.000000" stroke="none" 
	d="
M86.532799,63.805031 
	C86.951294,71.135551 81.321556,75.483162 77.047897,80.822937 
	C79.877289,75.247124 83.051651,69.616470 86.532799,63.805031 
z"/>
<path fill="#7BB8E3" opacity="1.000000" stroke="none" 
	d="
M72.656944,88.109695 
	C71.982094,94.194344 69.485428,99.638206 64.269165,103.892570 
	C66.725708,98.718575 69.535568,93.490585 72.656944,88.109695 
z"/>
<path fill="#7BB8E3" opacity="1.000000" stroke="none" 
	d="
M64.098694,241.320221 
	C67.047287,245.736267 70.016083,250.509445 72.981461,255.669098 
	C70.024994,251.262833 67.071945,246.470108 64.098694,241.320221 
z"/>
<path fill="#78B7DB" opacity="1.000000" stroke="none" 
	d="
M303.011780,322.007935 
	C304.123901,321.373413 305.235992,320.738922 306.664978,320.048035 
	C305.688690,322.454834 304.395538,324.918030 302.788422,327.828796 
	C302.282715,328.628326 302.091003,328.980255 301.899292,329.332184 
	C301.899323,329.332184 301.729095,329.728821 301.535583,329.824432 
	C300.677490,329.745209 300.012909,329.570343 299.163147,329.210754 
	C299.611481,327.575073 300.244965,326.124115 301.193237,324.193359 
	C302.009277,323.145020 302.510529,322.576477 303.011780,322.007935 
z"/>
<path fill="#7DBAD2" opacity="1.000000" stroke="none" 
	d="
M302.423157,127.077530 
	C303.214661,125.239197 304.366394,123.347702 306.002136,120.987411 
	C308.305603,117.988518 310.125061,115.458420 312.002136,112.992393 
	C312.059723,113.056465 312.181580,113.178291 312.181580,113.178299 
	C309.048859,117.793655 305.916138,122.409012 302.423157,127.077530 
z"/>
<path fill="#7BB8E3" opacity="1.000000" stroke="none" 
	d="
M104.671227,32.088505 
	C104.328827,37.529236 101.937790,42.211655 97.216515,45.903442 
	C99.351967,41.385826 101.859047,36.820271 104.671227,32.088505 
z"/>
<path fill="#7BB8E3" opacity="1.000000" stroke="none" 
	d="
M39.690331,145.179886 
	C40.042637,150.351318 37.917767,154.618713 33.374474,157.943375 
	C35.146725,153.789154 37.261890,149.561981 39.690331,145.179886 
z"/>
<path fill="#6B99BD" opacity="1.000000" stroke="none" 
	d="
M272.958435,113.406822 
	C277.699524,114.727776 278.463287,118.894440 279.022614,123.548653 
	C277.041809,120.522530 275.061646,117.133522 272.958435,113.406822 
z"/>
<path fill="#77AED7" opacity="1.000000" stroke="none" 
	d="
M288.360626,138.899567 
	C290.369415,139.597702 292.378204,140.295853 294.756317,141.020447 
	C294.291046,142.272049 293.456482,143.497238 292.621887,144.722412 
	C291.149811,143.338867 289.677765,141.955338 288.203583,139.985321 
	C288.254547,139.232407 288.307587,139.065979 288.360626,138.899567 
z"/>
<path fill="#7BB8E3" opacity="1.000000" stroke="none" 
	d="
M58.187431,231.291718 
	C61.506046,233.145599 64.689125,235.470856 64.061760,240.556900 
	C62.115486,237.806808 60.176842,234.725449 58.187431,231.291718 
z"/>
<path fill="#7DBAD2" opacity="1.000000" stroke="none" 
	d="
M312.278503,31.758230 
	C313.813690,34.283314 315.348877,36.808399 316.836182,39.702858 
	C316.788330,40.072235 316.634186,40.165955 316.307373,40.038094 
	C311.216492,39.090103 312.087952,35.312275 311.980743,32.014618 
	C312.079926,31.929092 312.278503,31.758232 312.278503,31.758230 
z"/>
<path fill="#7BB8E3" opacity="1.000000" stroke="none" 
	d="
M63.629631,104.060158 
	C64.178513,107.767609 62.725830,110.702179 58.929890,112.636993 
	C60.159309,109.874596 61.738884,107.036842 63.629631,104.060158 
z"/>
<path fill="#7BB8E3" opacity="1.000000" stroke="none" 
	d="
M50.697495,126.157684 
	C49.177944,129.548141 47.351051,133.102539 45.220310,136.812653 
	C46.741020,133.419464 48.565586,129.870529 50.697495,126.157684 
z"/>
<path fill="#8EB960" opacity="1.000000" stroke="none" 
	d="
M438.012482,250.610657 
	C436.372986,248.223724 434.697418,245.475830 433.014465,242.356110 
	C434.663544,244.739410 436.319977,247.494553 438.012482,250.610657 
z"/>
<path fill="#7BB6C1" opacity="1.000000" stroke="none" 
	d="
M317.297089,103.834396 
	C318.428772,101.383774 319.858917,98.774368 321.615631,96.070587 
	C320.493286,98.542671 319.044434,101.109146 317.297089,103.834396 
z"/>
<path fill="#9DBD72" opacity="1.000000" stroke="none" 
	d="
M591.145935,22.643368 
	C589.488708,20.461754 587.843933,17.977768 586.182983,15.122971 
	C587.830688,17.281771 589.494568,19.811382 591.145935,22.643368 
z"/>
<path fill="#98C967" opacity="1.000000" stroke="none" 
	d="
M407.993073,144.985489 
	C409.766998,142.041229 411.540924,139.096985 413.657349,136.087265 
	C412.377411,138.800980 410.754974,141.580154 408.772461,144.674805 
	C408.412354,144.990295 407.993073,144.985489 407.993073,144.985489 
z"/>
<path fill="#8EB960" opacity="1.000000" stroke="none" 
	d="
M586.820190,329.309479 
	C588.161682,326.404724 589.786743,323.314575 591.745728,320.166748 
	C590.420959,323.114044 588.762390,326.119080 586.820190,329.309479 
z"/>
<path fill="#7BB6C1" opacity="1.000000" stroke="none" 
	d="
M315.019196,104.022484 
	C315.458252,104.015816 315.897308,104.009148 316.665649,104.001076 
	C315.779755,106.480667 314.564575,108.961662 313.079163,111.723297 
	C312.808929,112.003937 312.696167,111.978516 312.751617,111.584015 
	C313.544434,108.800507 314.281830,106.411499 315.019196,104.022484 
z"/>
<path fill="#77AED7" opacity="1.000000" stroke="none" 
	d="
M297.349304,138.784714 
	C298.158600,136.706802 299.229645,134.457062 300.624939,132.098236 
	C299.836487,134.197067 298.723755,136.404968 297.349304,138.784714 
z"/>
<path fill="#6B99BD" opacity="1.000000" stroke="none" 
	d="
M288.264465,138.537842 
	C288.307587,139.065979 288.254547,139.232407 288.121094,139.648209 
	C286.724945,137.488739 285.409149,135.079910 284.080353,132.314743 
	C285.434326,134.030991 286.801300,136.103561 288.264465,138.537842 
z"/>
<path fill="#7BB8E3" opacity="1.000000" stroke="none" 
	d="
M75.460159,83.059341 
	C79.319328,86.363319 76.020020,86.927528 73.291718,87.922829 
	C73.697746,86.390648 74.439468,84.811195 75.460159,83.059341 
z"/>
<path fill="#7BB8E3" opacity="1.000000" stroke="none" 
	d="
M112.701309,18.163086 
	C111.811646,20.230095 110.626831,22.465799 109.128036,24.863850 
	C110.011429,22.794724 111.208786,20.563253 112.701309,18.163086 
z"/>
<path fill="#7BB9D1" opacity="1.000000" stroke="none" 
	d="
M308.068085,318.742676 
	C307.534698,318.796692 307.335510,318.610107 307.076294,318.197998 
	C308.177856,316.442474 309.384369,314.864502 310.896973,313.133148 
	C310.254456,314.836548 309.305878,316.693298 308.068085,318.742676 
z"/>
<path fill="#7BB9D1" opacity="1.000000" stroke="none" 
	d="
M309.837952,170.218811 
	C308.952881,172.213135 307.781494,174.391220 306.317261,176.681488 
	C307.200165,174.663315 308.375946,172.532928 309.837952,170.218811 
z"/>
<path fill="#7BB8E3" opacity="1.000000" stroke="none" 
	d="
M54.518169,120.116318 
	C54.074348,121.267487 53.381542,122.608910 52.345535,123.960152 
	C52.757950,122.748833 53.513569,121.527702 54.518169,120.116318 
z"/>
<path fill="#7BB6C1" opacity="1.000000" stroke="none" 
	d="
M319.872162,44.694122 
	C319.420349,44.811562 318.900452,44.602421 318.043945,43.882580 
	C317.349640,42.303234 316.991913,41.234592 316.634186,40.165955 
	C316.634186,40.165955 316.788330,40.072235 316.876251,40.051910 
	C317.910797,41.476906 318.857422,42.922226 319.872162,44.694122 
z"/>
<path fill="#7DBAD2" opacity="1.000000" stroke="none" 
	d="
M310.151184,27.857613 
	C310.814941,28.942978 311.478729,30.028341 312.210510,31.435968 
	C312.278503,31.758232 312.079926,31.929092 311.678009,31.868866 
	C310.790710,30.598288 310.305298,29.387932 309.902527,28.097391 
	C309.985168,28.017206 310.151184,27.857607 310.151184,27.857613 
z"/>
<path fill="#7BB8E3" opacity="1.000000" stroke="none" 
	d="
M58.355141,112.797295 
	C58.269993,113.687424 57.887318,114.733131 57.153999,115.884399 
	C57.221443,114.977592 57.639523,113.965240 58.355141,112.797295 
z"/>
<path fill="#9DBD72" opacity="1.000000" stroke="none" 
	d="
M595.125610,28.583549 
	C594.438354,27.882425 593.702576,26.857185 592.952087,25.468925 
	C593.650574,26.157082 594.363892,27.208258 595.125610,28.583549 
z"/>
<path fill="#7BB8E3" opacity="1.000000" stroke="none" 
	d="
M94.702087,49.162785 
	C94.555656,50.246685 94.126030,51.509365 93.368988,52.888824 
	C93.500687,51.784256 93.959793,50.562912 94.702087,49.162785 
z"/>
<path fill="#6B99BD" opacity="1.000000" stroke="none" 
	d="
M280.077271,125.309746 
	C280.749878,126.061981 281.431305,127.141808 282.075317,128.575439 
	C281.387268,127.831940 280.736633,126.734634 280.077271,125.309746 
z"/>
<path fill="#7DBAD2" opacity="1.000000" stroke="none" 
	d="
M308.007324,27.989340 
	C307.999298,27.248913 307.991272,26.508484 307.983673,25.397789 
	C308.655029,25.770405 309.325989,26.513288 310.074036,27.556889 
	C310.151184,27.857607 309.985168,28.017206 309.603577,28.048229 
	C308.817108,28.049282 308.412201,28.019310 308.007324,27.989340 
z"/>
<path fill="#8CC39B" opacity="1.000000" stroke="none" 
	d="
M369.284027,213.706406 
	C369.380188,212.854004 369.766754,211.941376 370.416565,211.013733 
	C370.311340,211.881210 369.942902,212.763702 369.284027,213.706406 
z"/>
<path fill="#7BB8E3" opacity="1.000000" stroke="none" 
	d="
M89.637329,57.966789 
	C89.538811,58.812431 89.149002,59.797726 88.446030,60.908226 
	C88.537254,60.057766 88.941650,59.082104 89.637329,57.966789 
z"/>
<path fill="#8EB960" opacity="1.000000" stroke="none" 
	d="
M431.038330,238.619751 
	C430.412048,238.141861 429.751892,237.333984 429.078186,236.175049 
	C429.711243,236.645905 430.357880,237.467819 431.038330,238.619751 
z"/>
<path fill="#7BB8E3" opacity="1.000000" stroke="none" 
	d="
M32.771431,158.220276 
	C32.576672,158.967911 32.129890,159.894913 31.372124,160.923584 
	C31.547226,160.150040 32.033318,159.274841 32.771431,158.220276 
z"/>
<path fill="#9DBD72" opacity="1.000000" stroke="none" 
	d="
M592.797424,24.762259 
	C592.313049,24.534805 591.737671,24.010666 591.109619,23.181232 
	C591.606873,23.405819 592.156616,23.935694 592.797424,24.762259 
z"/>
<path fill="#7BB9D1" opacity="1.000000" stroke="none" 
	d="
M303.863708,180.185181 
	C303.890656,180.776688 303.627441,181.490234 303.194427,182.139374 
	C303.207581,181.485718 303.390564,180.896469 303.863708,180.185181 
z"/>
<path fill="#7ABBDD" opacity="1.000000" stroke="none" 
	d="
M307.901611,24.713352 
	C307.521332,24.477135 307.089478,23.940931 306.808899,23.207916 
	C307.256775,23.478525 307.553375,23.945946 307.901611,24.713352 
z"/>
<path fill="#7BB8E3" opacity="1.000000" stroke="none" 
	d="
M92.730255,53.158077 
	C92.644615,53.952076 92.279976,54.859489 91.631714,55.884537 
	C91.715805,55.091942 92.083527,54.181717 92.730255,53.158077 
z"/>
<path fill="#80BEC8" opacity="1.000000" stroke="none" 
	d="
M318.221039,300.841492 
	C318.206177,300.369507 318.456177,299.759399 318.975677,299.126038 
	C318.992065,299.636322 318.738983,300.169830 318.221039,300.841492 
z"/>
<path fill="#95C772" opacity="1.000000" stroke="none" 
	d="
M407.855957,145.282913 
	C407.993073,144.985489 408.412354,144.990295 408.621979,144.990417 
	C408.412170,145.899368 407.992737,146.808212 407.311310,147.902939 
	C407.272461,147.252655 407.495636,146.416504 407.855957,145.282913 
z"/>
<path fill="#7BB8E3" opacity="1.000000" stroke="none" 
	d="
M96.437180,46.462696 
	C96.355835,47.082680 96.005669,47.906666 95.319443,48.858948 
	C95.378380,48.213730 95.773369,47.440216 96.437180,46.462696 
z"/>
<path fill="#95C772" opacity="1.000000" stroke="none" 
	d="
M406.416199,149.434875 
	C406.081512,150.143051 405.746857,150.851227 405.182434,151.766586 
	C404.952667,151.973755 404.926636,151.958420 404.954224,151.633728 
	C405.312836,150.534622 405.643860,149.760193 406.085968,149.097290 
	C406.197052,149.208817 406.416168,149.434860 406.416199,149.434875 
z"/>
<path fill="#8EB960" opacity="1.000000" stroke="none" 
	d="
M428.162994,233.591843 
	C427.859894,233.431396 427.507202,232.969925 427.114258,232.211243 
	C427.420502,232.372971 427.766937,232.831894 428.162994,233.591843 
z"/>
<path fill="#8EB960" opacity="1.000000" stroke="none" 
	d="
M439.053406,252.664932 
	C438.767883,252.490280 438.437805,252.018616 438.074524,251.253387 
	C438.363800,251.429199 438.686310,251.898560 439.053406,252.664932 
z"/>
<path fill="#669CC2" opacity="1.000000" stroke="none" 
	d="
M302.133881,329.292480 
	C302.091003,328.980255 302.282715,328.628326 302.644623,328.156616 
	C302.666046,328.442108 302.517242,328.847473 302.133881,329.292480 
z"/>
<path fill="#7BB8E3" opacity="1.000000" stroke="none" 
	d="
M106.730560,28.160389 
	C106.800110,28.571804 106.586395,29.087929 106.155579,29.788456 
	C106.108086,29.403606 106.277695,28.834352 106.730560,28.160389 
z"/>
<path fill="#8EB960" opacity="1.000000" stroke="none" 
	d="
M432.987976,241.717560 
	C432.684570,241.565231 432.354675,241.132538 431.981934,240.426605 
	C432.279877,240.581299 432.620667,241.009232 432.987976,241.717560 
z"/>
<path fill="#4A5550" opacity="1.000000" stroke="none" 
	d="
M2.854922,36.749992 
	C2.570933,36.769669 2.518255,36.508533 2.745024,36.107269 
	C2.863955,36.167423 2.884542,36.334766 2.854922,36.749992 
z"/>
<path fill="#7BB8E3" opacity="1.000000" stroke="none" 
	d="
M105.727097,30.035852 
	C105.870758,30.224588 105.728889,30.475782 105.376404,30.847237 
	C105.310638,30.707668 105.402565,30.417938 105.727097,30.035852 
z"/>
<path fill="#81BCBA" opacity="1.000000" stroke="none" 
	d="
M324.192261,290.887756 
	C324.071625,290.726685 324.196045,290.500854 324.517578,290.174072 
	C324.765930,290.366852 324.673492,290.616791 324.192261,290.887756 
z"/>
<path fill="#6B99BD" opacity="1.000000" stroke="none" 
	d="
M283.484924,131.164841 
	C283.743927,131.025467 283.948822,131.194962 284.054565,131.694534 
	C283.817352,131.779999 283.642487,131.596375 283.484924,131.164841 
z"/>
<path fill="#7BB8E3" opacity="1.000000" stroke="none" 
	d="
M108.546173,25.438683 
	C108.645699,25.639061 108.466995,26.050573 108.050522,26.701090 
	C107.964470,26.510002 108.116203,26.079910 108.546173,25.438683 
z"/>
<path fill="#7DBAD2" opacity="1.000000" stroke="none" 
	d="
M312.864685,111.988632 
	C312.834351,112.301186 312.748291,112.629036 312.421875,113.067589 
	C312.181580,113.178291 312.059723,113.056465 312.112091,112.820992 
	C312.324097,112.367760 312.501343,112.165421 312.696167,111.978516 
	C312.696167,111.978516 312.808929,112.003937 312.864685,111.988632 
z"/>
<path fill="#80BEC8" opacity="1.000000" stroke="none" 
	d="
M320.245544,298.504822 
	C320.078491,298.515869 320.091095,298.064911 320.114044,297.838989 
	C320.228851,297.906616 320.320709,298.200165 320.245544,298.504822 
z"/>
<path fill="#81BCBA" opacity="1.000000" stroke="none" 
	d="
M326.235840,286.895142 
	C326.102417,286.726044 326.219391,286.519318 326.516510,286.220703 
	C326.834320,286.419098 326.764160,286.662018 326.235840,286.895142 
z"/>
<path fill="#81BCBA" opacity="1.000000" stroke="none" 
	d="
M325.224823,288.906311 
	C325.094482,288.733826 325.222443,288.511780 325.542969,288.189026 
	C325.843994,288.395721 325.759857,288.651886 325.224823,288.906311 
z"/>
<path fill="#80BEC8" opacity="1.000000" stroke="none" 
	d="
M321.216553,296.588806 
	C321.051575,296.622650 321.077179,296.158203 321.101044,295.926849 
	C321.242035,295.873169 321.382141,296.040863 321.465271,296.233246 
	C321.499908,296.313446 321.413116,296.446167 321.216553,296.588806 
z"/>
<path fill="#9CCD5B" opacity="1.000000" stroke="none" 
	d="
M583.311768,160.343109 
	C583.464478,160.319443 583.591919,160.485199 583.805420,160.779541 
	C583.632629,160.881027 583.430969,160.755829 583.311768,160.343109 
z"/>
<path fill="#6B99BD" opacity="1.000000" stroke="none" 
	d="
M282.055725,129.265137 
	C282.349152,129.159225 282.589966,129.385651 282.864807,129.901947 
	C282.652161,129.938507 282.353607,129.740387 282.055725,129.265137 
z"/>
<path fill="#799D50" opacity="1.000000" stroke="none" 
	d="
M441.305969,90.016235 
	C441.113220,89.787727 441.262177,89.503189 441.700684,89.119240 
	C441.778870,89.282402 441.664673,89.595863 441.305969,90.016235 
z"/>
<path fill="#7BB8E3" opacity="1.000000" stroke="none" 
	d="
M42.770294,140.201965 
	C42.907581,140.387619 42.790321,140.586548 42.477287,140.857880 
	C42.207279,140.656296 42.285355,140.417938 42.770294,140.201965 
z"/>
<path fill="#77AED7" opacity="1.000000" stroke="none" 
	d="
M296.225342,140.781067 
	C296.074799,140.528259 296.209595,140.336288 296.560242,140.106522 
	C296.897247,140.378204 296.808807,140.635941 296.225342,140.781067 
z"/>
<path fill="#7BB8E3" opacity="1.000000" stroke="none" 
	d="
M40.751099,144.056992 
	C40.853947,144.263046 40.663742,144.515472 40.223526,144.862762 
	C40.189232,144.713730 40.350746,144.428970 40.751099,144.056992 
z"/>
<path fill="#799D50" opacity="1.000000" stroke="none" 
	d="
M442.112885,88.745934 
	C441.905548,88.535912 442.014984,88.276054 442.454620,87.981659 
	C442.647278,88.194695 442.528870,88.444351 442.112885,88.745934 
z"/>
<path fill="#95C772" opacity="1.000000" stroke="none" 
	d="
M405.993164,148.002502 
	C406.173645,148.005173 406.354095,148.007828 406.804871,148.026596 
	C406.989319,148.387024 406.903412,148.731354 406.616852,149.255280 
	C406.416168,149.434860 406.197052,149.208817 406.092957,148.851532 
	C405.988831,148.494247 405.993164,148.002502 405.993164,148.002502 
z"/>
<path fill="#95C772" opacity="1.000000" stroke="none" 
	d="
M404.966553,151.978699 
	C404.898438,152.320511 404.816467,152.657379 404.429443,153.058975 
	C404.124420,153.123703 403.959564,152.959808 404.094360,152.768616 
	C404.428009,152.333160 404.660492,152.126831 404.926636,151.958420 
	C404.926636,151.958420 404.952667,151.973755 404.966553,151.978699 
z"/>
<path fill="#95C772" opacity="1.000000" stroke="none" 
	d="
M404.207275,153.205170 
	C404.053040,153.511520 403.815948,153.736374 403.332611,154.022156 
	C403.086365,154.083084 403.019287,154.011292 403.129578,153.785736 
	C403.450287,153.324753 403.690186,153.124634 403.959564,152.959808 
	C403.959564,152.959808 404.124420,153.123703 404.207275,153.205170 
z"/>
<path fill="#7BB6C1" opacity="1.000000" stroke="none" 
	d="
M322.217957,95.893311 
	C322.069916,95.680420 322.214417,95.455460 322.574005,95.142433 
	C322.907623,95.384445 322.814728,95.660072 322.217957,95.893311 
z"/>
<path fill="#6B99BD" opacity="1.000000" stroke="none" 
	d="
M279.157745,124.205414 
	C279.442291,123.997566 279.711609,124.157784 279.963470,124.687248 
	C279.678040,124.894379 279.410187,124.733376 279.157745,124.205414 
z"/>
<path fill="#7BB8E3" opacity="1.000000" stroke="none" 
	d="
M87.633972,61.822796 
	C87.738022,62.006882 87.586411,62.318203 87.254364,62.819027 
	C87.175392,62.655697 87.276848,62.302864 87.633972,61.822796 
z"/>
<path fill="#92C67D" opacity="1.000000" stroke="none" 
	d="
M391.723145,174.312927 
	C391.381897,174.135513 391.420746,173.912308 391.820801,173.791473 
	C391.952362,173.822296 391.873596,174.195618 391.723145,174.312927 
z"/>
<path fill="#7BB8E3" opacity="1.000000" stroke="none" 
	d="
M44.591797,137.524277 
	C44.705555,137.717575 44.553677,138.110458 44.199394,138.745941 
	C44.106712,138.566986 44.216438,138.145416 44.591797,137.524277 
z"/>
<path fill="#7BB8E3" opacity="1.000000" stroke="none" 
	d="
M51.733521,124.074738 
	C51.891457,124.273514 51.759441,124.510094 51.422958,124.855377 
	C51.062855,124.634903 51.137882,124.351051 51.733521,124.074738 
z"/>
<path fill="#7BB8E3" opacity="1.000000" stroke="none" 
	d="
M56.529282,116.411545 
	C56.631660,116.606682 56.466679,117.014557 56.071121,117.657707 
	C55.981007,117.470085 56.121460,117.047173 56.529282,116.411545 
z"/>
<path fill="#8EB960" opacity="1.000000" stroke="none" 
	d="
M428.903473,234.755524 
	C428.630951,234.807098 428.435638,234.554596 428.211426,234.038895 
	C428.404083,234.035385 428.670105,234.260635 428.903473,234.755524 
z"/>
<path fill="#8EB960" opacity="1.000000" stroke="none" 
	d="
M431.891174,239.749420 
	C431.624939,239.842224 431.404816,239.622223 431.136963,239.137589 
	C431.321350,239.111496 431.604034,239.299393 431.891174,239.749420 
z"/>
<path fill="#78BAE8" opacity="1.000000" stroke="none" 
	d="
M302.695618,321.776184 
	C302.510529,322.576477 302.009277,323.145020 301.259796,323.858429 
	C300.007751,321.149323 298.123901,318.292114 298.134521,315.441895 
	C298.257355,282.434784 298.712097,249.428970 298.913849,216.421829 
	C298.930023,213.773911 297.386139,211.141968 297.202057,208.459045 
	C297.062073,206.418396 297.930176,204.308594 298.673584,202.114166 
	C302.761993,204.038513 301.844177,207.486725 301.823273,210.809219 
	C301.728241,225.907944 301.817505,241.007721 301.748566,256.106720 
	C301.700745,266.571655 301.480652,277.035736 301.379150,287.500580 
	C301.275940,298.144043 301.200134,308.788025 301.202606,319.431763 
	C301.202789,320.136078 301.969360,320.840210 302.695618,321.776184 
z"/>
<path fill="#78B7EB" opacity="1.000000" stroke="none" 
	d="
M179.153534,261.364685 
	C199.019592,261.002716 219.042160,260.999420 239.533615,261.000061 
	C238.648529,261.667786 237.298645,262.899475 235.939911,262.909332 
	C218.244431,263.037842 200.547592,263.017395 182.851517,262.937592 
	C181.669235,262.932281 180.490448,262.146240 179.153534,261.364685 
z"/>
<path fill="#78BAE8" opacity="1.000000" stroke="none" 
	d="
M298.710724,195.179199 
	C299.131256,196.162598 299.272247,197.334793 299.206024,198.753876 
	C298.553040,198.999390 298.107330,198.998032 297.327148,198.993759 
	C297.472168,197.783234 297.951691,196.575623 298.710724,195.179199 
z"/>
<path fill="#98C967" opacity="1.000000" stroke="none" 
	d="
M404.094360,152.768616 
	C403.690186,153.124634 403.450287,153.324753 403.098328,153.747833 
	C401.866516,154.336212 400.780487,154.748871 399.685242,155.135529 
	C395.846771,156.490723 394.146240,154.938629 394.563995,150.845673 
	C394.926361,147.295547 394.854309,143.702896 395.039215,140.132401 
	C395.330811,134.501144 395.994476,128.869797 395.943207,123.243584 
	C395.752289,102.296982 395.333191,81.352470 395.003845,60.407104 
	C394.985535,59.242115 394.563782,57.814682 395.075897,56.952522 
	C399.286255,49.864086 395.806915,42.529446 395.871979,35.333416 
	C395.889008,33.450359 394.855255,31.557806 394.129181,29.336670 
	C395.835327,25.454342 397.491577,21.754618 399.713013,18.432859 
	C400.549316,17.182356 402.695465,16.807806 404.620392,16.016798 
	C404.997437,34.794540 405.128052,53.590546 404.960815,72.383904 
	C404.813049,88.987862 404.215332,105.588135 404.112976,122.191864 
	C404.095367,125.046646 405.561798,127.910576 406.481201,131.277573 
	C401.090210,135.562851 405.640167,141.967972 405.667175,147.883698 
	C405.993164,148.002502 405.988831,148.494247 405.981873,148.740005 
	C405.643860,149.760193 405.312836,150.534622 404.954224,151.633728 
	C404.660492,152.126831 404.428009,152.333160 404.094360,152.768616 
z"/>
<path fill="#799D50" opacity="1.000000" stroke="none" 
	d="
M573.766357,139.723297 
	C573.674805,139.733795 573.484253,139.577713 573.194092,139.257324 
	C573.286743,139.245728 573.477722,139.400299 573.766357,139.723297 
z"/>
<path fill="#93C880" opacity="1.000000" stroke="none" 
	d="
M368.298096,271.423950 
	C371.146301,266.859161 373.892975,262.573700 376.838715,258.429718 
	C378.863708,255.581055 381.164856,252.928741 384.011902,249.346405 
	C384.651154,251.770996 385.172119,252.835678 385.175232,253.901855 
	C385.201721,263.017426 387.555298,272.101898 384.928650,281.288574 
	C384.123077,284.106079 384.988281,287.482269 385.435333,290.552094 
	C385.811462,293.134857 385.871826,295.242859 382.380371,295.956879 
	C377.436859,287.909241 372.859161,279.836426 368.298096,271.423950 
z"/>
<path fill="#95C772" opacity="1.000000" stroke="none" 
	d="
M381.272980,52.834522 
	C381.459991,52.068134 381.912598,51.131695 382.680298,50.090904 
	C382.509766,50.879196 382.024170,51.771832 381.272980,52.834522 
z"/>
<path fill="#95C772" opacity="1.000000" stroke="none" 
	d="
M376.263916,59.863113 
	C376.216949,59.725071 376.397491,59.484287 376.817780,59.152794 
	C376.846405,59.279968 376.657684,59.512733 376.263916,59.863113 
z"/>
<path fill="#7BB9D1" opacity="1.000000" stroke="none" 
	d="
M336.988098,127.971848 
	C336.971924,127.952049 337.173431,127.724579 337.173431,127.724579 
	C337.173431,127.724579 337.175293,127.931648 337.109253,127.978165 
	C337.043243,128.024689 337.004242,127.991638 336.988098,127.971848 
z"/>
<path fill="#78BAE8" opacity="1.000000" stroke="none" 
	d="
M302.974243,190.808380 
	C302.834900,191.000565 302.663391,190.998703 302.234344,190.992218 
	C302.298584,190.863190 302.620300,190.738739 302.974243,190.808380 
z"/>
<path fill="#8CC39B" opacity="1.000000" stroke="none" 
	d="
M355.000000,231.000305 
	C355.000000,231.000610 354.841553,231.256729 354.841553,231.256729 
	C354.841553,231.256729 354.856567,231.073944 354.928284,231.036713 
	C355.000000,230.999481 355.000000,231.000000 355.000000,231.000305 
z"/>
<path fill="#7ABBDD" opacity="1.000000" stroke="none" 
	d="
M312.751617,111.584015 
	C312.501343,112.165421 312.324097,112.367760 312.054504,112.756920 
	C310.125061,115.458420 308.305603,117.988518 306.243042,120.759705 
	C305.669891,112.759453 305.136047,104.520134 305.053619,96.276306 
	C304.899445,80.850883 304.890717,65.421288 305.096436,49.997086 
	C305.141632,46.607029 306.544617,43.256771 306.944855,39.843918 
	C307.383392,36.104416 307.384766,32.313648 307.791992,28.267281 
	C308.412201,28.019310 308.817108,28.049282 309.520935,28.128414 
	C310.305298,29.387932 310.790710,30.598288 311.578827,31.954395 
	C312.087952,35.312275 311.216492,39.090103 316.307373,40.038094 
	C316.991913,41.234592 317.349640,42.303234 317.843323,43.680145 
	C314.125061,44.560722 312.907837,46.873154 312.946838,50.636654 
	C313.087982,64.250320 312.857452,77.868881 313.095428,91.479858 
	C313.163818,95.390007 314.338379,99.280823 315.012482,103.601494 
	C314.281830,106.411499 313.544434,108.800507 312.751617,111.584015 
z"/>
</svg>